<?xml version="1.0" encoding="UTF-8" standalone="no"?><svg xmlns="http://www.w3.org/2000/svg" xmlns:xlink="http://www.w3.org/1999/xlink" contentScriptType="application/ecmascript" contentStyleType="text/css" height="542px" preserveAspectRatio="none" style="width:839px;height:542px;background:#FFFFFF;" version="1.1" viewBox="0 0 839 542" width="839px" zoomAndPan="magnify"><defs><filter height="300%" id="f1ma6kzwihc0dk" width="300%" x="-1" y="-1"><feGaussianBlur result="blurOut" stdDeviation="2.0"/><feColorMatrix in="blurOut" result="blurOut2" type="matrix" values="0 0 0 0 0 0 0 0 0 0 0 0 0 0 0 0 0 0 .4 0"/><feOffset dx="4.0" dy="4.0" in="blurOut2" result="blurOut3"/><feBlend in="SourceGraphic" in2="blurOut3" mode="normal"/></filter></defs><g><!--MD5=[8b82677223ea9eb28a50de16faa90dcd]
class Dataset--><rect codeLine="4" fill="#FEFECE" filter="url(#f1ma6kzwihc0dk)" height="269.375" id="Dataset" style="stroke:#A80036;stroke-width:1.5;" width="170" x="62.5" y="7"/><ellipse cx="121.75" cy="23" fill="#ADD1B2" rx="11" ry="11" style="stroke:#A80036;stroke-width:1.0;"/><path d="M123.75,19.5 Q123.9531,19 124.1875,18.75 Q124.4219,18.5 124.6875,18.5 Q125.1563,18.5 125.4531,18.7813 Q125.75,19.0625 125.75,19.7188 L125.75,21.2813 Q125.75,21.9375 125.4688,22.2188 Q125.1875,22.5 124.75,22.5 Q124.3594,22.5 124.1094,22.3281 Q123.8594,22.1563 123.75,21.7031 Q123.7031,21.3906 123.5313,21.2188 Q123.2188,20.8906 122.6563,20.7031 Q122.0938,20.5 121.5313,20.5 Q120.8281,20.5 120.2344,20.7813 Q119.6563,21.0625 119.2031,21.6875 Q118.75,22.3125 118.75,23.1719 L118.75,24.0938 Q118.75,25.125 119.5938,25.8125 Q120.4375,26.5 121.9375,26.5 Q122.8281,26.5 123.4531,26.2969 Q123.8125,26.1875 124.2188,25.8281 Q124.4844,25.625 124.625,25.5625 Q124.7656,25.5 124.9375,25.5 Q125.2656,25.5 125.5,25.7656 Q125.75,26.0156 125.75,26.375 Q125.75,26.7188 125.4063,27.125 Q124.9063,27.7188 124.1094,28.0469 Q123.0625,28.5 121.7813,28.5 Q120.2813,28.5 119.0781,27.9063 Q118.1094,27.4375 117.4219,26.4219 Q116.75,25.4063 116.75,24.2031 L116.75,23.1094 Q116.75,21.8594 117.3438,20.7656 Q117.9531,19.6719 119,19.0938 Q120.0625,18.5 121.25,18.5 Q121.9688,18.5 122.5938,18.75 Q123.2188,19 123.75,19.5 Z " fill="#000000"/><text fill="#000000" font-family="sans-serif" font-size="12" lengthAdjust="spacing" textLength="43" x="142.25" y="27.9102">Dataset</text><line style="stroke:#A80036;stroke-width:1.5;" x1="63.5" x2="231.5" y1="39" y2="39"/><text fill="#000000" font-family="sans-serif" font-size="11" lengthAdjust="spacing" textLength="55" x="68.5" y="54.4189">Title: String!</text><text fill="#000000" font-family="sans-serif" font-size="11" lengthAdjust="spacing" textLength="66" x="68.5" y="68.2549">Rights: String!</text><text fill="#000000" font-family="sans-serif" font-size="11" lengthAdjust="spacing" textLength="79" x="68.5" y="82.0908">rightsURI: String!</text><text fill="#000000" font-family="sans-serif" font-size="11" lengthAdjust="spacing" textLength="104" x="68.5" y="95.9268">rightsIdentifier: String!</text><text fill="#000000" font-family="sans-serif" font-size="11" lengthAdjust="spacing" textLength="78" x="68.5" y="109.7627">Abstract: String!</text><line style="stroke:#A80036;stroke-width:1.0;" x1="63.5" x2="231.5" y1="116.1797" y2="116.1797"/><text fill="#000000" font-family="sans-serif" font-size="11" lengthAdjust="spacing" textLength="90" x="68.5" y="131.5986">socialMedia: String</text><text fill="#000000" font-family="sans-serif" font-size="11" lengthAdjust="spacing" textLength="70" x="68.5" y="145.4346">Subject: String</text><text fill="#000000" font-family="sans-serif" font-size="11" lengthAdjust="spacing" textLength="108" x="68.5" y="159.2705">subjectSchema: String</text><text fill="#000000" font-family="sans-serif" font-size="11" lengthAdjust="spacing" textLength="62" x="68.5" y="173.1064">Image: String</text><text fill="#000000" font-family="sans-serif" font-size="11" lengthAdjust="spacing" textLength="158" x="68.5" y="186.9424">generalModality: GeneralModality</text><text fill="#000000" font-family="sans-serif" font-size="11" lengthAdjust="spacing" textLength="136" x="68.5" y="200.7783">generalModalityOther: String</text><text fill="#000000" font-family="sans-serif" font-size="11" lengthAdjust="spacing" textLength="106" x="68.5" y="214.6143">Technique: Technique</text><text fill="#000000" font-family="sans-serif" font-size="11" lengthAdjust="spacing" textLength="108" x="68.5" y="228.4502">techniqueOther: String</text><text fill="#000000" font-family="sans-serif" font-size="11" lengthAdjust="spacing" textLength="75" x="68.5" y="242.2861">Methods: String</text><text fill="#000000" font-family="sans-serif" font-size="11" lengthAdjust="spacing" textLength="95" x="68.5" y="256.1221">technicalInfo: String</text><text fill="#000000" font-family="sans-serif" font-size="11" lengthAdjust="spacing" textLength="0" x="71.5" y="269.958"/><!--MD5=[957bdb4c6b0140cf586bf637a3c1a853]
class GeneralModality--><rect codeLine="24" fill="#FEFECE" filter="url(#f1ma6kzwihc0dk)" height="95.3438" id="GeneralModality" style="stroke:#A80036;stroke-width:1.5;" width="121" x="7" y="384.5"/><ellipse cx="22.45" cy="400.5" fill="#EB937F" rx="11" ry="11" style="stroke:#A80036;stroke-width:1.0;"/><path d="M20.95,401.5 L20.95,403.5 L24.95,403.5 L24.95,402.5 L24.95,402.0156 L25.575,401.5 L25.95,401.5 L26.325,401.5 L26.95,402.0156 L26.95,402.5 L26.95,405.5 L18.95,405.5 L18.4656,405.5 L17.95,404.875 L17.95,404.5 L17.95,404.125 L18.4656,403.5 L18.95,403.5 L18.95,403.5 L18.95,397.5 L18.95,397.5 L18.4656,397.5 L17.95,396.875 L17.95,396.5 L17.95,396.125 L18.4656,395.5 L18.95,395.5 L26.95,395.5 L26.95,398.5 L26.95,398.9844 L26.325,399.5 L25.95,399.5 L25.575,399.5 L24.95,398.9844 L24.95,398.5 L24.95,397.5 L20.95,397.5 L20.95,399.5 L21.95,399.5 L21.95,399.0156 L21.95,399.0156 L22.575,398.5 L22.95,398.5 L23.325,398.5 L23.95,399.0156 L23.95,399.5 L23.95,401.5 L23.95,401.9844 L23.325,402.5 L23.325,402.5 L22.95,402.5 L22.575,402.5 L21.95,401.9844 L21.95,401.9844 L21.95,401.5 L20.95,401.5 Z " fill="#000000"/><text fill="#000000" font-family="sans-serif" font-size="12" lengthAdjust="spacing" textLength="88" x="36.55" y="405.4102">GeneralModality</text><line style="stroke:#A80036;stroke-width:1.5;" x1="8" x2="127" y1="416.5" y2="416.5"/><text fill="#000000" font-family="sans-serif" font-size="11" lengthAdjust="spacing" textLength="76" x="13" y="431.9189">Cell morphology</text><text fill="#000000" font-family="sans-serif" font-size="11" lengthAdjust="spacing" textLength="59" x="13" y="445.7549">Connectivity</text><text fill="#000000" font-family="sans-serif" font-size="11" lengthAdjust="spacing" textLength="88" x="13" y="459.5908">Population imaging</text><text fill="#000000" font-family="sans-serif" font-size="11" lengthAdjust="spacing" textLength="109" x="13" y="473.4268">Spatial transcriptomics</text><!--MD5=[bc131368981f76e8ad3a9820af089aee]
class Technique--><rect codeLine="31" fill="#FEFECE" filter="url(#f1ma6kzwihc0dk)" height="192.1953" id="Technique" style="stroke:#A80036;stroke-width:1.5;" width="111" x="163" y="336"/><ellipse cx="187.45" cy="352" fill="#EB937F" rx="11" ry="11" style="stroke:#A80036;stroke-width:1.0;"/><path d="M185.95,353 L185.95,355 L189.95,355 L189.95,354 L189.95,353.5156 L190.575,353 L190.95,353 L191.325,353 L191.95,353.5156 L191.95,354 L191.95,357 L183.95,357 L183.4656,357 L182.95,356.375 L182.95,356 L182.95,355.625 L183.4656,355 L183.95,355 L183.95,355 L183.95,349 L183.95,349 L183.4656,349 L182.95,348.375 L182.95,348 L182.95,347.625 L183.4656,347 L183.95,347 L191.95,347 L191.95,350 L191.95,350.4844 L191.325,351 L190.95,351 L190.575,351 L189.95,350.4844 L189.95,350 L189.95,349 L185.95,349 L185.95,351 L186.95,351 L186.95,350.5156 L186.95,350.5156 L187.575,350 L187.95,350 L188.325,350 L188.95,350.5156 L188.95,351 L188.95,353 L188.95,353.4844 L188.325,354 L188.325,354 L187.95,354 L187.575,354 L186.95,353.4844 L186.95,353.4844 L186.95,353 L185.95,353 Z " fill="#000000"/><text fill="#000000" font-family="sans-serif" font-size="12" lengthAdjust="spacing" textLength="58" x="203.55" y="356.9102">Technique</text><line style="stroke:#A80036;stroke-width:1.5;" x1="164" x2="273" y1="368" y2="368"/><text fill="#000000" font-family="sans-serif" font-size="11" lengthAdjust="spacing" textLength="97" x="169" y="383.4189">Anterograde tracing</text><text fill="#000000" font-family="sans-serif" font-size="11" lengthAdjust="spacing" textLength="50" x="169" y="397.2549">DARTFISH</text><text fill="#000000" font-family="sans-serif" font-size="11" lengthAdjust="spacing" textLength="33" x="169" y="411.0908">fMOST</text><text fill="#000000" font-family="sans-serif" font-size="11" lengthAdjust="spacing" textLength="43" x="169" y="424.9268">MERFISH</text><text fill="#000000" font-family="sans-serif" font-size="11" lengthAdjust="spacing" textLength="49" x="169" y="438.7627">Patch-seq</text><text fill="#000000" font-family="sans-serif" font-size="11" lengthAdjust="spacing" textLength="54" x="169" y="452.5986">Retrograde</text><text fill="#000000" font-family="sans-serif" font-size="11" lengthAdjust="spacing" textLength="90" x="169" y="466.4346">Retrograde tracing</text><text fill="#000000" font-family="sans-serif" font-size="11" lengthAdjust="spacing" textLength="36" x="169" y="480.2705">smFISH</text><text fill="#000000" font-family="sans-serif" font-size="11" lengthAdjust="spacing" textLength="99" x="169" y="494.1064">Transynaptic tracing</text><text fill="#000000" font-family="sans-serif" font-size="11" lengthAdjust="spacing" textLength="59" x="169" y="507.9424">TRIO tracing</text><text fill="#000000" font-family="sans-serif" font-size="11" lengthAdjust="spacing" textLength="27" x="169" y="521.7783">Other</text><!--MD5=[162006c598b688125b14d47af79fc6d8]
class Specimen--><rect codeLine="49" fill="#FEFECE" filter="url(#f1ma6kzwihc0dk)" height="230.0313" id="Specimen" style="stroke:#A80036;stroke-width:1.5;" width="121" x="330" y="26.5"/><ellipse cx="359.85" cy="42.5" fill="#ADD1B2" rx="11" ry="11" style="stroke:#A80036;stroke-width:1.0;"/><path d="M361.85,39 Q362.0531,38.5 362.2875,38.25 Q362.5219,38 362.7875,38 Q363.2563,38 363.5531,38.2813 Q363.85,38.5625 363.85,39.2188 L363.85,40.7813 Q363.85,41.4375 363.5688,41.7188 Q363.2875,42 362.85,42 Q362.4594,42 362.2094,41.8281 Q361.9594,41.6563 361.85,41.2031 Q361.8031,40.8906 361.6313,40.7188 Q361.3188,40.3906 360.7563,40.2031 Q360.1938,40 359.6313,40 Q358.9281,40 358.3344,40.2813 Q357.7563,40.5625 357.3031,41.1875 Q356.85,41.8125 356.85,42.6719 L356.85,43.5938 Q356.85,44.625 357.6938,45.3125 Q358.5375,46 360.0375,46 Q360.9281,46 361.5531,45.7969 Q361.9125,45.6875 362.3188,45.3281 Q362.5844,45.125 362.725,45.0625 Q362.8656,45 363.0375,45 Q363.3656,45 363.6,45.2656 Q363.85,45.5156 363.85,45.875 Q363.85,46.2188 363.5063,46.625 Q363.0063,47.2188 362.2094,47.5469 Q361.1625,48 359.8813,48 Q358.3813,48 357.1781,47.4063 Q356.2094,46.9375 355.5219,45.9219 Q354.85,44.9063 354.85,43.7031 L354.85,42.6094 Q354.85,41.3594 355.4438,40.2656 Q356.0531,39.1719 357.1,38.5938 Q358.1625,38 359.35,38 Q360.0688,38 360.6938,38.25 Q361.3188,38.5 361.85,39 Z " fill="#000000"/><text fill="#000000" font-family="sans-serif" font-size="12" lengthAdjust="spacing" textLength="56" x="377.15" y="47.4102">Specimen</text><line style="stroke:#A80036;stroke-width:1.5;" x1="331" x2="450" y1="58.5" y2="58.5"/><text fill="#000000" font-family="sans-serif" font-size="11" lengthAdjust="spacing" textLength="75" x="336" y="73.9189">Species: String!</text><text fill="#000000" font-family="sans-serif" font-size="11" lengthAdjust="spacing" textLength="109" x="336" y="87.7549">NCBITaxonomy: String!</text><text fill="#000000" font-family="sans-serif" font-size="11" lengthAdjust="spacing" textLength="56" x="336" y="101.5908">Age: String!</text><text fill="#000000" font-family="sans-serif" font-size="11" lengthAdjust="spacing" textLength="82" x="336" y="115.4268">ageUnit: AgeUnit!</text><text fill="#000000" font-family="sans-serif" font-size="11" lengthAdjust="spacing" textLength="46" x="336" y="129.2627">Sex: Sex!</text><line style="stroke:#A80036;stroke-width:1.0;" x1="331" x2="450" y1="135.6797" y2="135.6797"/><text fill="#000000" font-family="sans-serif" font-size="11" lengthAdjust="spacing" textLength="65" x="336" y="151.0986">localID: String</text><text fill="#000000" font-family="sans-serif" font-size="11" lengthAdjust="spacing" textLength="81" x="336" y="164.9346">Genotype: String</text><line style="stroke:#A80036;stroke-width:1.0;" x1="331" x2="450" y1="171.3516" y2="171.3516"/><text fill="#000000" font-family="sans-serif" font-size="11" lengthAdjust="spacing" textLength="97" x="336" y="186.7705">organLocalID: String</text><text fill="#000000" font-family="sans-serif" font-size="11" lengthAdjust="spacing" textLength="89" x="336" y="200.6064">organName: String</text><line style="stroke:#A80036;stroke-width:1.0;" x1="331" x2="450" y1="207.0234" y2="207.0234"/><text fill="#000000" font-family="sans-serif" font-size="11" lengthAdjust="spacing" textLength="103" x="336" y="222.4424">sampleLocalID: String</text><text fill="#000000" font-family="sans-serif" font-size="11" lengthAdjust="spacing" textLength="59" x="336" y="236.2783">Atlas: String</text><text fill="#000000" font-family="sans-serif" font-size="11" lengthAdjust="spacing" textLength="75" x="336" y="250.1143">Location: String</text><!--MD5=[fad1b158854207fd1de60a211664a36f]
class AgeUnit--><rect codeLine="67" fill="#FEFECE" filter="url(#f1ma6kzwihc0dk)" height="81.5078" id="AgeUnit" style="stroke:#A80036;stroke-width:1.5;" width="75" x="335" y="391"/><ellipse cx="350" cy="407" fill="#EB937F" rx="11" ry="11" style="stroke:#A80036;stroke-width:1.0;"/><path d="M348.5,408 L348.5,410 L352.5,410 L352.5,409 L352.5,408.5156 L353.125,408 L353.5,408 L353.875,408 L354.5,408.5156 L354.5,409 L354.5,412 L346.5,412 L346.0156,412 L345.5,411.375 L345.5,411 L345.5,410.625 L346.0156,410 L346.5,410 L346.5,410 L346.5,404 L346.5,404 L346.0156,404 L345.5,403.375 L345.5,403 L345.5,402.625 L346.0156,402 L346.5,402 L354.5,402 L354.5,405 L354.5,405.4844 L353.875,406 L353.5,406 L353.125,406 L352.5,405.4844 L352.5,405 L352.5,404 L348.5,404 L348.5,406 L349.5,406 L349.5,405.5156 L349.5,405.5156 L350.125,405 L350.5,405 L350.875,405 L351.5,405.5156 L351.5,406 L351.5,408 L351.5,408.4844 L350.875,409 L350.875,409 L350.5,409 L350.125,409 L349.5,408.4844 L349.5,408.4844 L349.5,408 L348.5,408 Z " fill="#000000"/><text fill="#000000" font-family="sans-serif" font-size="12" lengthAdjust="spacing" textLength="43" x="364" y="411.9102">AgeUnit</text><line style="stroke:#A80036;stroke-width:1.5;" x1="336" x2="409" y1="423" y2="423"/><text fill="#000000" font-family="sans-serif" font-size="11" lengthAdjust="spacing" textLength="25" x="341" y="438.4189">Days</text><text fill="#000000" font-family="sans-serif" font-size="11" lengthAdjust="spacing" textLength="35" x="341" y="452.2549">Months</text><text fill="#000000" font-family="sans-serif" font-size="11" lengthAdjust="spacing" textLength="30" x="341" y="466.0908">Years</text><!--MD5=[9c77111fd5cfd3d1ba88e4ce20d27734]
class Sex--><rect codeLine="73" fill="#FEFECE" filter="url(#f1ma6kzwihc0dk)" height="81.5078" id="Sex" style="stroke:#A80036;stroke-width:1.5;" width="58" x="445.5" y="391"/><ellipse cx="463.2" cy="407" fill="#EB937F" rx="11" ry="11" style="stroke:#A80036;stroke-width:1.0;"/><path d="M461.7,408 L461.7,410 L465.7,410 L465.7,409 L465.7,408.5156 L466.325,408 L466.7,408 L467.075,408 L467.7,408.5156 L467.7,409 L467.7,412 L459.7,412 L459.2156,412 L458.7,411.375 L458.7,411 L458.7,410.625 L459.2156,410 L459.7,410 L459.7,410 L459.7,404 L459.7,404 L459.2156,404 L458.7,403.375 L458.7,403 L458.7,402.625 L459.2156,402 L459.7,402 L467.7,402 L467.7,405 L467.7,405.4844 L467.075,406 L466.7,406 L466.325,406 L465.7,405.4844 L465.7,405 L465.7,404 L461.7,404 L461.7,406 L462.7,406 L462.7,405.5156 L462.7,405.5156 L463.325,405 L463.7,405 L464.075,405 L464.7,405.5156 L464.7,406 L464.7,408 L464.7,408.4844 L464.075,409 L464.075,409 L463.7,409 L463.325,409 L462.7,408.4844 L462.7,408.4844 L462.7,408 L461.7,408 Z " fill="#000000"/><text fill="#000000" font-family="sans-serif" font-size="12" lengthAdjust="spacing" textLength="20" x="477.8" y="411.9102">Sex</text><line style="stroke:#A80036;stroke-width:1.5;" x1="446.5" x2="502.5" y1="423" y2="423"/><text fill="#000000" font-family="sans-serif" font-size="11" lengthAdjust="spacing" textLength="34" x="451.5" y="438.4189">Female</text><text fill="#000000" font-family="sans-serif" font-size="11" lengthAdjust="spacing" textLength="22" x="451.5" y="452.2549">Male</text><text fill="#000000" font-family="sans-serif" font-size="11" lengthAdjust="spacing" textLength="46" x="451.5" y="466.0908">Unknown</text><!--MD5=[bfaa0cf1c94f172be725c75ad56c3fba]
class Publication--><rect codeLine="83" fill="#FEFECE" filter="url(#f1ma6kzwihc0dk)" height="109.1797" id="Publication" style="stroke:#A80036;stroke-width:1.5;" width="217" x="584" y="87"/><ellipse cx="657.75" cy="103" fill="#ADD1B2" rx="11" ry="11" style="stroke:#A80036;stroke-width:1.0;"/><path d="M659.75,99.5 Q659.9531,99 660.1875,98.75 Q660.4219,98.5 660.6875,98.5 Q661.1563,98.5 661.4531,98.7813 Q661.75,99.0625 661.75,99.7188 L661.75,101.2813 Q661.75,101.9375 661.4688,102.2188 Q661.1875,102.5 660.75,102.5 Q660.3594,102.5 660.1094,102.3281 Q659.8594,102.1563 659.75,101.7031 Q659.7031,101.3906 659.5313,101.2188 Q659.2188,100.8906 658.6563,100.7031 Q658.0938,100.5 657.5313,100.5 Q656.8281,100.5 656.2344,100.7813 Q655.6563,101.0625 655.2031,101.6875 Q654.75,102.3125 654.75,103.1719 L654.75,104.0938 Q654.75,105.125 655.5938,105.8125 Q656.4375,106.5 657.9375,106.5 Q658.8281,106.5 659.4531,106.2969 Q659.8125,106.1875 660.2188,105.8281 Q660.4844,105.625 660.625,105.5625 Q660.7656,105.5 660.9375,105.5 Q661.2656,105.5 661.5,105.7656 Q661.75,106.0156 661.75,106.375 Q661.75,106.7188 661.4063,107.125 Q660.9063,107.7188 660.1094,108.0469 Q659.0625,108.5 657.7813,108.5 Q656.2813,108.5 655.0781,107.9063 Q654.1094,107.4375 653.4219,106.4219 Q652.75,105.4063 652.75,104.2031 L652.75,103.1094 Q652.75,101.8594 653.3438,100.7656 Q653.9531,99.6719 655,99.0938 Q656.0625,98.5 657.25,98.5 Q657.9688,98.5 658.5938,98.75 Q659.2188,99 659.75,99.5 Z " fill="#000000"/><text fill="#000000" font-family="sans-serif" font-size="12" lengthAdjust="spacing" textLength="61" x="678.25" y="107.9102">Publication</text><line style="stroke:#A80036;stroke-width:1.5;" x1="585" x2="800" y1="119" y2="119"/><text fill="#000000" font-family="sans-serif" font-size="11" lengthAdjust="spacing" textLength="108" x="590" y="134.4189">relatedIdentifier: String</text><text fill="#000000" font-family="sans-serif" font-size="11" lengthAdjust="spacing" textLength="205" x="590" y="148.2549">relatedIdentifierType: RelatedIdentifierType</text><text fill="#000000" font-family="sans-serif" font-size="11" lengthAdjust="spacing" textLength="64" x="590" y="162.0908">PMCID: String</text><text fill="#000000" font-family="sans-serif" font-size="11" lengthAdjust="spacing" textLength="127" x="590" y="175.9268">relationType: RelationType</text><text fill="#000000" font-family="sans-serif" font-size="11" lengthAdjust="spacing" textLength="69" x="590" y="189.7627">Citation: String</text><!--MD5=[ae16cade31757bfc517fa637a520bd98]
class RelatedIdentifierType--><rect codeLine="91" fill="#FEFECE" filter="url(#f1ma6kzwihc0dk)" height="95.3438" id="RelatedIdentifierType" style="stroke:#A80036;stroke-width:1.5;" width="148" x="538.5" y="384.5"/><ellipse cx="553.5" cy="400.5" fill="#EB937F" rx="11" ry="11" style="stroke:#A80036;stroke-width:1.0;"/><path d="M552,401.5 L552,403.5 L556,403.5 L556,402.5 L556,402.0156 L556.625,401.5 L557,401.5 L557.375,401.5 L558,402.0156 L558,402.5 L558,405.5 L550,405.5 L549.5156,405.5 L549,404.875 L549,404.5 L549,404.125 L549.5156,403.5 L550,403.5 L550,403.5 L550,397.5 L550,397.5 L549.5156,397.5 L549,396.875 L549,396.5 L549,396.125 L549.5156,395.5 L550,395.5 L558,395.5 L558,398.5 L558,398.9844 L557.375,399.5 L557,399.5 L556.625,399.5 L556,398.9844 L556,398.5 L556,397.5 L552,397.5 L552,399.5 L553,399.5 L553,399.0156 L553,399.0156 L553.625,398.5 L554,398.5 L554.375,398.5 L555,399.0156 L555,399.5 L555,401.5 L555,401.9844 L554.375,402.5 L554.375,402.5 L554,402.5 L553.625,402.5 L553,401.9844 L553,401.9844 L553,401.5 L552,401.5 Z " fill="#000000"/><text fill="#000000" font-family="sans-serif" font-size="12" lengthAdjust="spacing" textLength="116" x="567.5" y="405.4102">RelatedIdentifierType</text><line style="stroke:#A80036;stroke-width:1.5;" x1="539.5" x2="685.5" y1="416.5" y2="416.5"/><text fill="#000000" font-family="sans-serif" font-size="11" lengthAdjust="spacing" textLength="29" x="544.5" y="431.9189">arXiv*</text><text fill="#000000" font-family="sans-serif" font-size="11" lengthAdjust="spacing" textLength="21" x="544.5" y="445.7549">DOI*</text><text fill="#000000" font-family="sans-serif" font-size="11" lengthAdjust="spacing" textLength="27" x="544.5" y="459.5908">ISBN*</text><text fill="#000000" font-family="sans-serif" font-size="11" lengthAdjust="spacing" textLength="27" x="544.5" y="473.4268">PMID*</text><!--MD5=[9f39629da3edd43e553ce739f9fad207]
class RelationType--><rect codeLine="98" fill="#FEFECE" filter="url(#f1ma6kzwihc0dk)" height="67.6719" id="RelationType" style="stroke:#A80036;stroke-width:1.5;" width="104" x="721.5" y="398"/><ellipse cx="736.5" cy="414" fill="#EB937F" rx="11" ry="11" style="stroke:#A80036;stroke-width:1.0;"/><path d="M735,415 L735,417 L739,417 L739,416 L739,415.5156 L739.625,415 L740,415 L740.375,415 L741,415.5156 L741,416 L741,419 L733,419 L732.5156,419 L732,418.375 L732,418 L732,417.625 L732.5156,417 L733,417 L733,417 L733,411 L733,411 L732.5156,411 L732,410.375 L732,410 L732,409.625 L732.5156,409 L733,409 L741,409 L741,412 L741,412.4844 L740.375,413 L740,413 L739.625,413 L739,412.4844 L739,412 L739,411 L735,411 L735,413 L736,413 L736,412.5156 L736,412.5156 L736.625,412 L737,412 L737.375,412 L738,412.5156 L738,413 L738,415 L738,415.4844 L737.375,416 L737.375,416 L737,416 L736.625,416 L736,415.4844 L736,415.4844 L736,415 L735,415 Z " fill="#000000"/><text fill="#000000" font-family="sans-serif" font-size="12" lengthAdjust="spacing" textLength="72" x="750.5" y="418.9102">RelationType</text><line style="stroke:#A80036;stroke-width:1.5;" x1="722.5" x2="824.5" y1="430" y2="430"/><text fill="#000000" font-family="sans-serif" font-size="11" lengthAdjust="spacing" textLength="45" x="727.5" y="445.4189">IsCitedBy</text><text fill="#000000" font-family="sans-serif" font-size="11" lengthAdjust="spacing" textLength="81" x="727.5" y="459.2549">IsDocumentedBy</text><!--MD5=[39937b6835e361611b66b6472aa66e12]
link Dataset to GeneralModality--><path codeLine="45" d="M110.43,276.19 C100.6,311.63 90.54,347.91 82.63,376.44 " fill="none" id="Dataset-to-GeneralModality" style="stroke:#A80036;stroke-width:1.0;"/><line style="stroke:#A80036;stroke-width:1.0;" x1="83.4092" x2="80.46" y1="373.6827" y2="384.28"/><ellipse cx="83.4092" cy="373.6827" fill="none" rx="4" ry="4" style="stroke:#A80036;stroke-width:1.0;"/><line style="stroke:#A80036;stroke-width:1.0;" x1="85.386" x2="77.6789" y1="381.4989" y2="379.354"/><!--MD5=[1601f298d84f892d71d95c8fb29656a6]
link Dataset to Technique--><path codeLine="46" d="M180.4,276.19 C184.64,293.42 188.93,310.85 193.03,327.49 " fill="none" id="Dataset-to-Technique" style="stroke:#A80036;stroke-width:1.0;"/><line style="stroke:#A80036;stroke-width:1.0;" x1="192.3891" x2="195.02" y1="324.9093" y2="335.59"/><ellipse cx="192.3891" cy="324.9093" fill="none" rx="4" ry="4" style="stroke:#A80036;stroke-width:1.0;"/><line style="stroke:#A80036;stroke-width:1.0;" x1="197.9472" x2="190.1794" y1="330.7494" y2="332.6628"/><!--MD5=[c46db2d7ef71b537a63a44382737461d]
link Specimen to AgeUnit--><path codeLine="79" d="M383.39,256.52 C380.62,300.78 377.62,349.02 375.46,383.53 " fill="none" id="Specimen-to-AgeUnit" style="stroke:#A80036;stroke-width:1.0;"/><line style="stroke:#A80036;stroke-width:1.0;" x1="379.2651" x2="371.2811" y1="386.9411" y2="386.4349"/><line style="stroke:#A80036;stroke-width:1.0;" x1="379.4549" x2="371.4709" y1="383.9471" y2="383.441"/><line style="stroke:#A80036;stroke-width:1.0;" x1="375.5261" x2="375.02" y1="382.696" y2="390.68"/><!--MD5=[c29fcfddaae3d110c1f6c4f134bd3dc2]
link Specimen to Sex--><path codeLine="80" d="M423.7,256.52 C436.59,300.78 450.63,349.02 460.68,383.53 " fill="none" id="Specimen-to-Sex" style="stroke:#A80036;stroke-width:1.0;"/><line style="stroke:#A80036;stroke-width:1.0;" x1="465.4836" x2="457.802" y1="385.722" y2="387.9564"/><line style="stroke:#A80036;stroke-width:1.0;" x1="464.6458" x2="456.9641" y1="382.8414" y2="385.0757"/><line style="stroke:#A80036;stroke-width:1.0;" x1="460.5256" x2="462.76" y1="382.9984" y2="390.68"/><!--MD5=[fd4662f33a33f27b00646993ab2fd4c8]
link Publication to RelatedIdentifierType--><path codeLine="103" d="M677.64,196.09 C663.37,247.55 641.92,324.89 627.58,376.62 " fill="none" id="Publication-to-RelatedIdentifierType" style="stroke:#A80036;stroke-width:1.0;"/><line style="stroke:#A80036;stroke-width:1.0;" x1="627.5712" x2="631.2111" y1="376.6619" y2="385.9759"/><line style="stroke:#A80036;stroke-width:1.0;" x1="627.5712" x2="619.6489" y1="376.6619" y2="382.7641"/><line style="stroke:#A80036;stroke-width:1.0;" x1="627.5712" x2="625.43" y1="376.6619" y2="384.37"/><ellipse cx="629.177" cy="370.8807" fill="none" rx="4" ry="4" style="stroke:#A80036;stroke-width:1.0;"/><!--MD5=[3533e49e48a038578f00b2fb5361ed5e]
link Publication to RelationType--><path codeLine="104" d="M707.55,196.09 C723.31,252.24 747.73,339.2 762.01,390.08 " fill="none" id="Publication-to-RelationType" style="stroke:#A80036;stroke-width:1.0;"/><line style="stroke:#A80036;stroke-width:1.0;" x1="762.0387" x2="769.9848" y1="390.2203" y2="396.2915"/><line style="stroke:#A80036;stroke-width:1.0;" x1="762.0387" x2="758.4352" y1="390.2203" y2="399.5485"/><line style="stroke:#A80036;stroke-width:1.0;" x1="762.0387" x2="764.21" y1="390.2203" y2="397.92"/><ellipse cx="760.4102" cy="384.4455" fill="none" rx="4" ry="4" style="stroke:#A80036;stroke-width:1.0;"/><!--MD5=[ce0484a36b7f3bd826403483ac5c9d6b]
@startuml

hide empty members

class Dataset {
    Title: String!
    Rights: String!
    rightsURI: String!
    rightsIdentifier: String!
    Abstract: String!
    - -
    socialMedia: String
    Subject: String
    subjectSchema: String
    Image: String
    generalModality: GeneralModality
    generalModalityOther: String
    Technique: Technique
    techniqueOther: String
    Methods: String
    technicalInfo: String

}

enum GeneralModality {
    Cell morphology
    Connectivity
    Population imaging
    Spatial transcriptomics
}

enum Technique {
    Anterograde tracing
    DARTFISH
    fMOST
    MERFISH
    Patch-seq
    Retrograde
    Retrograde tracing
    smFISH
    Transynaptic tracing
    TRIO tracing
    Other
}

Dataset - -o| GeneralModality
Dataset - -o| Technique


class Specimen {
    Species: String!
    NCBITaxonomy: String!
    Age: String!
    ageUnit: AgeUnit!
    Sex: Sex!
    - -
    localID: String
    Genotype: String
    - -
    organLocalID: String
    organName: String
    - -
    sampleLocalID: String
    Atlas: String
    Location: String
}

enum AgeUnit {
    Days
    Months
    Years
}

enum Sex {
    Female
    Male
    Unknown
}

Specimen - -|| AgeUnit
Specimen - -|| Sex


class Publication {
    relatedIdentifier: String
    relatedIdentifierType: RelatedIdentifierType
    PMCID: String
    relationType: RelationType
    Citation: String
}

enum RelatedIdentifierType {
    arXiv*
    DOI*
    ISBN*
    PMID*
}

enum RelationType {
    IsCitedBy
    IsDocumentedBy
}

Publication - -o{ RelatedIdentifierType
Publication - -o{ RelationType


@enduml

PlantUML version 1.2022.1(Tue Feb 01 10:19:58 PST 2022)
(GPL source distribution)
Java Runtime: OpenJDK Runtime Environment
JVM: OpenJDK 64-Bit Server VM
Default Encoding: Cp1252
Language: en
Country: US
--></g></svg>