<?xml version="1.0" encoding="UTF-8" standalone="no"?><svg xmlns="http://www.w3.org/2000/svg" xmlns:xlink="http://www.w3.org/1999/xlink" contentScriptType="application/ecmascript" contentStyleType="text/css" height="1344px" preserveAspectRatio="none" style="width:2067px;height:1344px;background:#FFFFFF;" version="1.1" viewBox="0 0 2067 1344" width="2067px" zoomAndPan="magnify"><defs><filter height="300%" id="f1oeqzznvc84zq" width="300%" x="-1" y="-1"><feGaussianBlur result="blurOut" stdDeviation="2.0"/><feColorMatrix in="blurOut" result="blurOut2" type="matrix" values="0 0 0 0 0 0 0 0 0 0 0 0 0 0 0 0 0 0 .4 0"/><feOffset dx="4.0" dy="4.0" in="blurOut2" result="blurOut3"/><feBlend in="SourceGraphic" in2="blurOut3" mode="normal"/></filter></defs><g><!--MD5=[94cd5d910c946ffab62c98bd0b7c0b18]
class WebResourceType--><rect codeLine="7" fill="#FEFECE" filter="url(#f1oeqzznvc84zq)" height="95.3438" id="WebResourceType" style="stroke:#A80036;stroke-width:1.5;" width="137" x="7" y="1235"/><ellipse cx="22" cy="1251" fill="#EB937F" rx="11" ry="11" style="stroke:#A80036;stroke-width:1.0;"/><path d="M20.5,1252 L20.5,1254 L24.5,1254 L24.5,1253 L24.5,1252.5156 L25.125,1252 L25.5,1252 L25.875,1252 L26.5,1252.5156 L26.5,1253 L26.5,1256 L18.5,1256 L18.0156,1256 L17.5,1255.375 L17.5,1255 L17.5,1254.625 L18.0156,1254 L18.5,1254 L18.5,1254 L18.5,1248 L18.5,1248 L18.0156,1248 L17.5,1247.375 L17.5,1247 L17.5,1246.625 L18.0156,1246 L18.5,1246 L26.5,1246 L26.5,1249 L26.5,1249.4844 L25.875,1250 L25.5,1250 L25.125,1250 L24.5,1249.4844 L24.5,1249 L24.5,1248 L20.5,1248 L20.5,1250 L21.5,1250 L21.5,1249.5156 L21.5,1249.5156 L22.125,1249 L22.5,1249 L22.875,1249 L23.5,1249.5156 L23.5,1250 L23.5,1252 L23.5,1252.4844 L22.875,1253 L22.875,1253 L22.5,1253 L22.125,1253 L21.5,1252.4844 L21.5,1252.4844 L21.5,1252 L20.5,1252 Z " fill="#000000"/><text fill="#000000" font-family="sans-serif" font-size="12" lengthAdjust="spacing" textLength="105" x="36" y="1255.9102">WebResourceType</text><line style="stroke:#A80036;stroke-width:1.5;" x1="8" x2="143" y1="1267" y2="1267"/><text fill="#000000" font-family="sans-serif" font-size="11" lengthAdjust="spacing" textLength="49" x="13" y="1282.4189">Download</text><text fill="#000000" font-family="sans-serif" font-size="11" lengthAdjust="spacing" textLength="53" x="13" y="1296.2549">Information</text><text fill="#000000" font-family="sans-serif" font-size="11" lengthAdjust="spacing" textLength="36" x="13" y="1310.0908">Explore</text><text fill="#000000" font-family="sans-serif" font-size="11" lengthAdjust="spacing" textLength="26" x="13" y="1323.9268">View</text><!--MD5=[ee60552bc4698d86a6bc3ed4a603a080]
class AccessControl--><rect codeLine="14" fill="#FEFECE" filter="url(#f1oeqzznvc84zq)" height="81.5078" id="AccessControl" style="stroke:#A80036;stroke-width:1.5;" width="112" x="727.5" y="457.5"/><ellipse cx="742.5" cy="473.5" fill="#EB937F" rx="11" ry="11" style="stroke:#A80036;stroke-width:1.0;"/><path d="M741,474.5 L741,476.5 L745,476.5 L745,475.5 L745,475.0156 L745.625,474.5 L746,474.5 L746.375,474.5 L747,475.0156 L747,475.5 L747,478.5 L739,478.5 L738.5156,478.5 L738,477.875 L738,477.5 L738,477.125 L738.5156,476.5 L739,476.5 L739,476.5 L739,470.5 L739,470.5 L738.5156,470.5 L738,469.875 L738,469.5 L738,469.125 L738.5156,468.5 L739,468.5 L747,468.5 L747,471.5 L747,471.9844 L746.375,472.5 L746,472.5 L745.625,472.5 L745,471.9844 L745,471.5 L745,470.5 L741,470.5 L741,472.5 L742,472.5 L742,472.0156 L742,472.0156 L742.625,471.5 L743,471.5 L743.375,471.5 L744,472.0156 L744,472.5 L744,474.5 L744,474.9844 L743.375,475.5 L743.375,475.5 L743,475.5 L742.625,475.5 L742,474.9844 L742,474.9844 L742,474.5 L741,474.5 Z " fill="#000000"/><text fill="#000000" font-family="sans-serif" font-size="12" lengthAdjust="spacing" textLength="80" x="756.5" y="478.4102">AccessControl</text><line style="stroke:#A80036;stroke-width:1.5;" x1="728.5" x2="838.5" y1="489.5" y2="489.5"/><text fill="#000000" font-family="sans-serif" font-size="11" lengthAdjust="spacing" textLength="26" x="733.5" y="504.9189">Open</text><text fill="#000000" font-family="sans-serif" font-size="11" lengthAdjust="spacing" textLength="54" x="733.5" y="518.7549">Embargoed</text><text fill="#000000" font-family="sans-serif" font-size="11" lengthAdjust="spacing" textLength="48" x="733.5" y="532.5908">Controlled</text><!--MD5=[d2e3369b79ba4fed7c95849642c5ab8e]
class CompletionState--><rect codeLine="20" fill="#FEFECE" filter="url(#f1oeqzznvc84zq)" height="67.6719" id="CompletionState" style="stroke:#A80036;stroke-width:1.5;" width="124" x="874.5" y="464.5"/><ellipse cx="889.5" cy="480.5" fill="#EB937F" rx="11" ry="11" style="stroke:#A80036;stroke-width:1.0;"/><path d="M888,481.5 L888,483.5 L892,483.5 L892,482.5 L892,482.0156 L892.625,481.5 L893,481.5 L893.375,481.5 L894,482.0156 L894,482.5 L894,485.5 L886,485.5 L885.5156,485.5 L885,484.875 L885,484.5 L885,484.125 L885.5156,483.5 L886,483.5 L886,483.5 L886,477.5 L886,477.5 L885.5156,477.5 L885,476.875 L885,476.5 L885,476.125 L885.5156,475.5 L886,475.5 L894,475.5 L894,478.5 L894,478.9844 L893.375,479.5 L893,479.5 L892.625,479.5 L892,478.9844 L892,478.5 L892,477.5 L888,477.5 L888,479.5 L889,479.5 L889,479.0156 L889,479.0156 L889.625,478.5 L890,478.5 L890.375,478.5 L891,479.0156 L891,479.5 L891,481.5 L891,481.9844 L890.375,482.5 L890.375,482.5 L890,482.5 L889.625,482.5 L889,481.9844 L889,481.9844 L889,481.5 L888,481.5 Z " fill="#000000"/><text fill="#000000" font-family="sans-serif" font-size="12" lengthAdjust="spacing" textLength="92" x="903.5" y="485.4102">CompletionState</text><line style="stroke:#A80036;stroke-width:1.5;" x1="875.5" x2="997.5" y1="496.5" y2="496.5"/><text fill="#000000" font-family="sans-serif" font-size="11" lengthAdjust="spacing" textLength="44" x="880.5" y="511.9189">Complete</text><text fill="#000000" font-family="sans-serif" font-size="11" lengthAdjust="spacing" textLength="52" x="880.5" y="525.7549">InProgress</text><!--MD5=[882df27358662c529fa8a6049e48654c]
class AgentType--><rect codeLine="25" fill="#FEFECE" filter="url(#f1oeqzznvc84zq)" height="67.6719" id="AgentType" style="stroke:#A80036;stroke-width:1.5;" width="89" x="1792" y="756.5"/><ellipse cx="1807" cy="772.5" fill="#EB937F" rx="11" ry="11" style="stroke:#A80036;stroke-width:1.0;"/><path d="M1805.5,773.5 L1805.5,775.5 L1809.5,775.5 L1809.5,774.5 L1809.5,774.0156 L1810.125,773.5 L1810.5,773.5 L1810.875,773.5 L1811.5,774.0156 L1811.5,774.5 L1811.5,777.5 L1803.5,777.5 L1803.0156,777.5 L1802.5,776.875 L1802.5,776.5 L1802.5,776.125 L1803.0156,775.5 L1803.5,775.5 L1803.5,775.5 L1803.5,769.5 L1803.5,769.5 L1803.0156,769.5 L1802.5,768.875 L1802.5,768.5 L1802.5,768.125 L1803.0156,767.5 L1803.5,767.5 L1811.5,767.5 L1811.5,770.5 L1811.5,770.9844 L1810.875,771.5 L1810.5,771.5 L1810.125,771.5 L1809.5,770.9844 L1809.5,770.5 L1809.5,769.5 L1805.5,769.5 L1805.5,771.5 L1806.5,771.5 L1806.5,771.0156 L1806.5,771.0156 L1807.125,770.5 L1807.5,770.5 L1807.875,770.5 L1808.5,771.0156 L1808.5,771.5 L1808.5,773.5 L1808.5,773.9844 L1807.875,774.5 L1807.875,774.5 L1807.5,774.5 L1807.125,774.5 L1806.5,773.9844 L1806.5,773.9844 L1806.5,773.5 L1805.5,773.5 Z " fill="#000000"/><text fill="#000000" font-family="sans-serif" font-size="12" lengthAdjust="spacing" textLength="57" x="1821" y="777.4102">AgentType</text><line style="stroke:#A80036;stroke-width:1.5;" x1="1793" x2="1880" y1="788.5" y2="788.5"/><text fill="#000000" font-family="sans-serif" font-size="11" lengthAdjust="spacing" textLength="34" x="1798" y="803.9189">Person</text><text fill="#000000" font-family="sans-serif" font-size="11" lengthAdjust="spacing" textLength="61" x="1798" y="817.7549">Organization</text><!--MD5=[9d44916250b776386006c440668bcfbb]
class Agent--><rect codeLine="32" fill="#FEFECE" filter="url(#f1oeqzznvc84zq)" height="81.5078" id="Agent" style="stroke:#A80036;stroke-width:1.5;" width="136" x="1768.5" y="457.5"/><ellipse cx="1816.75" cy="473.5" fill="#ADD1B2" rx="11" ry="11" style="stroke:#A80036;stroke-width:1.0;"/><path d="M1818.75,470 Q1818.9531,469.5 1819.1875,469.25 Q1819.4219,469 1819.6875,469 Q1820.1563,469 1820.4531,469.2813 Q1820.75,469.5625 1820.75,470.2188 L1820.75,471.7813 Q1820.75,472.4375 1820.4688,472.7188 Q1820.1875,473 1819.75,473 Q1819.3594,473 1819.1094,472.8281 Q1818.8594,472.6563 1818.75,472.2031 Q1818.7031,471.8906 1818.5313,471.7188 Q1818.2188,471.3906 1817.6563,471.2031 Q1817.0938,471 1816.5313,471 Q1815.8281,471 1815.2344,471.2813 Q1814.6563,471.5625 1814.2031,472.1875 Q1813.75,472.8125 1813.75,473.6719 L1813.75,474.5938 Q1813.75,475.625 1814.5938,476.3125 Q1815.4375,477 1816.9375,477 Q1817.8281,477 1818.4531,476.7969 Q1818.8125,476.6875 1819.2188,476.3281 Q1819.4844,476.125 1819.625,476.0625 Q1819.7656,476 1819.9375,476 Q1820.2656,476 1820.5,476.2656 Q1820.75,476.5156 1820.75,476.875 Q1820.75,477.2188 1820.4063,477.625 Q1819.9063,478.2188 1819.1094,478.5469 Q1818.0625,479 1816.7813,479 Q1815.2813,479 1814.0781,478.4063 Q1813.1094,477.9375 1812.4219,476.9219 Q1811.75,475.9063 1811.75,474.7031 L1811.75,473.6094 Q1811.75,472.3594 1812.3438,471.2656 Q1812.9531,470.1719 1814,469.5938 Q1815.0625,469 1816.25,469 Q1816.9688,469 1817.5938,469.25 Q1818.2188,469.5 1818.75,470 Z " fill="#000000"/><text fill="#000000" font-family="sans-serif" font-size="12" lengthAdjust="spacing" textLength="31" x="1837.25" y="478.4102">Agent</text><line style="stroke:#A80036;stroke-width:1.5;" x1="1769.5" x2="1903.5" y1="489.5" y2="489.5"/><ellipse cx="1779.5" cy="500.5" fill="#000000" rx="3" ry="3" style="stroke:#000000;stroke-width:1.0;"/><text fill="#000000" font-family="sans-serif" font-size="11" lengthAdjust="spacing" textLength="44" x="1788.5" y="504.9189">id: String!</text><text fill="#000000" font-family="sans-serif" font-size="11" lengthAdjust="spacing" textLength="77" x="1788.5" y="518.7549">agent_id: String!</text><text fill="#000000" font-family="sans-serif" font-size="11" lengthAdjust="spacing" textLength="110" x="1788.5" y="532.5908">agentType: AgentType</text><!--MD5=[b3492d3bf48f89c99185815a77ba40ad]
class Modality--><rect codeLine="38" fill="#FEFECE" filter="url(#f1oeqzznvc84zq)" height="81.5078" id="Modality" style="stroke:#A80036;stroke-width:1.5;" width="92" x="1033.5" y="457.5"/><ellipse cx="1055.7" cy="473.5" fill="#ADD1B2" rx="11" ry="11" style="stroke:#A80036;stroke-width:1.0;"/><path d="M1057.7,470 Q1057.9031,469.5 1058.1375,469.25 Q1058.3719,469 1058.6375,469 Q1059.1063,469 1059.4031,469.2813 Q1059.7,469.5625 1059.7,470.2188 L1059.7,471.7813 Q1059.7,472.4375 1059.4188,472.7188 Q1059.1375,473 1058.7,473 Q1058.3094,473 1058.0594,472.8281 Q1057.8094,472.6563 1057.7,472.2031 Q1057.6531,471.8906 1057.4813,471.7188 Q1057.1688,471.3906 1056.6063,471.2031 Q1056.0438,471 1055.4813,471 Q1054.7781,471 1054.1844,471.2813 Q1053.6063,471.5625 1053.1531,472.1875 Q1052.7,472.8125 1052.7,473.6719 L1052.7,474.5938 Q1052.7,475.625 1053.5438,476.3125 Q1054.3875,477 1055.8875,477 Q1056.7781,477 1057.4031,476.7969 Q1057.7625,476.6875 1058.1688,476.3281 Q1058.4344,476.125 1058.575,476.0625 Q1058.7156,476 1058.8875,476 Q1059.2156,476 1059.45,476.2656 Q1059.7,476.5156 1059.7,476.875 Q1059.7,477.2188 1059.3563,477.625 Q1058.8563,478.2188 1058.0594,478.5469 Q1057.0125,479 1055.7313,479 Q1054.2313,479 1053.0281,478.4063 Q1052.0594,477.9375 1051.3719,476.9219 Q1050.7,475.9063 1050.7,474.7031 L1050.7,473.6094 Q1050.7,472.3594 1051.2938,471.2656 Q1051.9031,470.1719 1052.95,469.5938 Q1054.0125,469 1055.2,469 Q1055.9188,469 1056.5438,469.25 Q1057.1688,469.5 1057.7,470 Z " fill="#000000"/><text fill="#000000" font-family="sans-serif" font-size="12" lengthAdjust="spacing" textLength="44" x="1071.3" y="478.4102">Modality</text><line style="stroke:#A80036;stroke-width:1.5;" x1="1034.5" x2="1124.5" y1="489.5" y2="489.5"/><ellipse cx="1044.5" cy="500.5" fill="#000000" rx="3" ry="3" style="stroke:#000000;stroke-width:1.0;"/><text fill="#000000" font-family="sans-serif" font-size="11" lengthAdjust="spacing" textLength="44" x="1053.5" y="504.9189">id: String!</text><text fill="#000000" font-family="sans-serif" font-size="11" lengthAdjust="spacing" textLength="62" x="1053.5" y="518.7549">name: String!</text><text fill="#000000" font-family="sans-serif" font-size="11" lengthAdjust="spacing" textLength="66" x="1053.5" y="532.5908">handle: String</text><!--MD5=[2757bcbfe2a2966d11307a76e322fe51]
class SpecimenType--><rect codeLine="44" fill="#FEFECE" filter="url(#f1oeqzznvc84zq)" height="81.5078" id="SpecimenType" style="stroke:#A80036;stroke-width:1.5;" width="114" x="574.5" y="749.5"/><ellipse cx="589.5" cy="765.5" fill="#ADD1B2" rx="11" ry="11" style="stroke:#A80036;stroke-width:1.0;"/><path d="M591.5,762 Q591.7031,761.5 591.9375,761.25 Q592.1719,761 592.4375,761 Q592.9063,761 593.2031,761.2813 Q593.5,761.5625 593.5,762.2188 L593.5,763.7813 Q593.5,764.4375 593.2188,764.7188 Q592.9375,765 592.5,765 Q592.1094,765 591.8594,764.8281 Q591.6094,764.6563 591.5,764.2031 Q591.4531,763.8906 591.2813,763.7188 Q590.9688,763.3906 590.4063,763.2031 Q589.8438,763 589.2813,763 Q588.5781,763 587.9844,763.2813 Q587.4063,763.5625 586.9531,764.1875 Q586.5,764.8125 586.5,765.6719 L586.5,766.5938 Q586.5,767.625 587.3438,768.3125 Q588.1875,769 589.6875,769 Q590.5781,769 591.2031,768.7969 Q591.5625,768.6875 591.9688,768.3281 Q592.2344,768.125 592.375,768.0625 Q592.5156,768 592.6875,768 Q593.0156,768 593.25,768.2656 Q593.5,768.5156 593.5,768.875 Q593.5,769.2188 593.1563,769.625 Q592.6563,770.2188 591.8594,770.5469 Q590.8125,771 589.5313,771 Q588.0313,771 586.8281,770.4063 Q585.8594,769.9375 585.1719,768.9219 Q584.5,767.9063 584.5,766.7031 L584.5,765.6094 Q584.5,764.3594 585.0938,763.2656 Q585.7031,762.1719 586.75,761.5938 Q587.8125,761 589,761 Q589.7188,761 590.3438,761.25 Q590.9688,761.5 591.5,762 Z " fill="#000000"/><text fill="#000000" font-family="sans-serif" font-size="12" lengthAdjust="spacing" textLength="82" x="603.5" y="770.4102">SpecimenType</text><line style="stroke:#A80036;stroke-width:1.5;" x1="575.5" x2="687.5" y1="781.5" y2="781.5"/><ellipse cx="585.5" cy="792.5" fill="#000000" rx="3" ry="3" style="stroke:#000000;stroke-width:1.0;"/><text fill="#000000" font-family="sans-serif" font-size="11" lengthAdjust="spacing" textLength="44" x="594.5" y="796.9189">id: String!</text><text fill="#000000" font-family="sans-serif" font-size="11" lengthAdjust="spacing" textLength="62" x="594.5" y="810.7549">name: String!</text><text fill="#000000" font-family="sans-serif" font-size="11" lengthAdjust="spacing" textLength="66" x="594.5" y="824.5908">handle: String</text><!--MD5=[152cb71d9f887ec7a4f01b93fc4e8a07]
class WebResource--><rect codeLine="51" fill="#FEFECE" filter="url(#f1oeqzznvc84zq)" height="123.0156" id="WebResource" style="stroke:#A80036;stroke-width:1.5;" width="111" x="20" y="1034"/><ellipse cx="35" cy="1050" fill="#ADD1B2" rx="11" ry="11" style="stroke:#A80036;stroke-width:1.0;"/><path d="M37,1046.5 Q37.2031,1046 37.4375,1045.75 Q37.6719,1045.5 37.9375,1045.5 Q38.4063,1045.5 38.7031,1045.7813 Q39,1046.0625 39,1046.7188 L39,1048.2813 Q39,1048.9375 38.7188,1049.2188 Q38.4375,1049.5 38,1049.5 Q37.6094,1049.5 37.3594,1049.3281 Q37.1094,1049.1563 37,1048.7031 Q36.9531,1048.3906 36.7813,1048.2188 Q36.4688,1047.8906 35.9063,1047.7031 Q35.3438,1047.5 34.7813,1047.5 Q34.0781,1047.5 33.4844,1047.7813 Q32.9063,1048.0625 32.4531,1048.6875 Q32,1049.3125 32,1050.1719 L32,1051.0938 Q32,1052.125 32.8438,1052.8125 Q33.6875,1053.5 35.1875,1053.5 Q36.0781,1053.5 36.7031,1053.2969 Q37.0625,1053.1875 37.4688,1052.8281 Q37.7344,1052.625 37.875,1052.5625 Q38.0156,1052.5 38.1875,1052.5 Q38.5156,1052.5 38.75,1052.7656 Q39,1053.0156 39,1053.375 Q39,1053.7188 38.6563,1054.125 Q38.1563,1054.7188 37.3594,1055.0469 Q36.3125,1055.5 35.0313,1055.5 Q33.5313,1055.5 32.3281,1054.9063 Q31.3594,1054.4375 30.6719,1053.4219 Q30,1052.4063 30,1051.2031 L30,1050.1094 Q30,1048.8594 30.5938,1047.7656 Q31.2031,1046.6719 32.25,1046.0938 Q33.3125,1045.5 34.5,1045.5 Q35.2188,1045.5 35.8438,1045.75 Q36.4688,1046 37,1046.5 Z " fill="#000000"/><text fill="#000000" font-family="sans-serif" font-size="12" lengthAdjust="spacing" textLength="79" x="49" y="1054.9102">WebResource</text><line style="stroke:#A80036;stroke-width:1.5;" x1="21" x2="130" y1="1066" y2="1066"/><ellipse cx="31" cy="1077" fill="#000000" rx="3" ry="3" style="stroke:#000000;stroke-width:1.0;"/><text fill="#000000" font-family="sans-serif" font-size="11" lengthAdjust="spacing" textLength="44" x="40" y="1081.4189">id: String!</text><text fill="#000000" font-family="sans-serif" font-size="11" lengthAdjust="spacing" textLength="66" x="40" y="1095.2549">handle: String</text><text fill="#000000" font-family="sans-serif" font-size="11" lengthAdjust="spacing" textLength="52" x="40" y="1109.0908">title: String!</text><text fill="#000000" font-family="sans-serif" font-size="11" lengthAdjust="spacing" textLength="80" x="40" y="1122.9268">shortTitle: String!</text><text fill="#000000" font-family="sans-serif" font-size="11" lengthAdjust="spacing" textLength="48" x="40" y="1136.7627">url: String!</text><text fill="#000000" font-family="sans-serif" font-size="11" lengthAdjust="spacing" textLength="50" x="40" y="1150.5986">rrid: String</text><!--MD5=[c160724f8e3bb89ca8141a12554ac2e3]
class Collection--><rect codeLine="60" fill="#FEFECE" filter="url(#f1oeqzznvc84zq)" height="164.5234" id="Collection" style="stroke:#A80036;stroke-width:1.5;" width="133" x="717" y="194"/><ellipse cx="752.7" cy="210" fill="#ADD1B2" rx="11" ry="11" style="stroke:#A80036;stroke-width:1.0;"/><path d="M754.7,206.5 Q754.9031,206 755.1375,205.75 Q755.3719,205.5 755.6375,205.5 Q756.1063,205.5 756.4031,205.7813 Q756.7,206.0625 756.7,206.7188 L756.7,208.2813 Q756.7,208.9375 756.4188,209.2188 Q756.1375,209.5 755.7,209.5 Q755.3094,209.5 755.0594,209.3281 Q754.8094,209.1563 754.7,208.7031 Q754.6531,208.3906 754.4813,208.2188 Q754.1688,207.8906 753.6063,207.7031 Q753.0438,207.5 752.4813,207.5 Q751.7781,207.5 751.1844,207.7813 Q750.6063,208.0625 750.1531,208.6875 Q749.7,209.3125 749.7,210.1719 L749.7,211.0938 Q749.7,212.125 750.5438,212.8125 Q751.3875,213.5 752.8875,213.5 Q753.7781,213.5 754.4031,213.2969 Q754.7625,213.1875 755.1688,212.8281 Q755.4344,212.625 755.575,212.5625 Q755.7156,212.5 755.8875,212.5 Q756.2156,212.5 756.45,212.7656 Q756.7,213.0156 756.7,213.375 Q756.7,213.7188 756.3563,214.125 Q755.8563,214.7188 755.0594,215.0469 Q754.0125,215.5 752.7313,215.5 Q751.2313,215.5 750.0281,214.9063 Q749.0594,214.4375 748.3719,213.4219 Q747.7,212.4063 747.7,211.2031 L747.7,210.1094 Q747.7,208.8594 748.2938,207.7656 Q748.9031,206.6719 749.95,206.0938 Q751.0125,205.5 752.2,205.5 Q752.9188,205.5 753.5438,205.75 Q754.1688,206 754.7,206.5 Z " fill="#000000"/><text fill="#000000" font-family="sans-serif" font-size="12" lengthAdjust="spacing" textLength="55" x="771.3" y="214.9102">Collection</text><line style="stroke:#A80036;stroke-width:1.5;" x1="718" x2="849" y1="226" y2="226"/><ellipse cx="728" cy="237" fill="#000000" rx="3" ry="3" style="stroke:#000000;stroke-width:1.0;"/><text fill="#000000" font-family="sans-serif" font-size="11" lengthAdjust="spacing" textLength="44" x="737" y="241.4189">id: String!</text><text fill="#000000" font-family="sans-serif" font-size="11" lengthAdjust="spacing" textLength="68" x="737" y="255.2549">handle: String!</text><text fill="#000000" font-family="sans-serif" font-size="11" lengthAdjust="spacing" textLength="52" x="737" y="269.0908">title: String!</text><text fill="#000000" font-family="sans-serif" font-size="11" lengthAdjust="spacing" textLength="80" x="737" y="282.9268">shortTitle: String!</text><text fill="#000000" font-family="sans-serif" font-size="11" lengthAdjust="spacing" textLength="89" x="737" y="296.7627">description: String!</text><text fill="#000000" font-family="sans-serif" font-size="11" lengthAdjust="spacing" textLength="107" x="737" y="310.5986">lastUpdatedDate: Date</text><text fill="#000000" font-family="sans-serif" font-size="11" lengthAdjust="spacing" textLength="48" x="737" y="324.4346">doi: String</text><text fill="#000000" font-family="sans-serif" font-size="11" lengthAdjust="spacing" textLength="50" x="737" y="338.2705">rrid: String</text><text fill="#000000" font-family="sans-serif" font-size="11" lengthAdjust="spacing" textLength="68" x="737" y="352.1064">citation: String</text><!--MD5=[175f95e045c1a44aed0b30df3abe0e5c]
class Program--><rect codeLine="72" fill="#FEFECE" filter="url(#f1oeqzznvc84zq)" height="109.1797" id="Program" style="stroke:#A80036;stroke-width:1.5;" width="115" x="1233" y="222"/><ellipse cx="1263.75" cy="238" fill="#ADD1B2" rx="11" ry="11" style="stroke:#A80036;stroke-width:1.0;"/><path d="M1265.75,234.5 Q1265.9531,234 1266.1875,233.75 Q1266.4219,233.5 1266.6875,233.5 Q1267.1563,233.5 1267.4531,233.7813 Q1267.75,234.0625 1267.75,234.7188 L1267.75,236.2813 Q1267.75,236.9375 1267.4688,237.2188 Q1267.1875,237.5 1266.75,237.5 Q1266.3594,237.5 1266.1094,237.3281 Q1265.8594,237.1563 1265.75,236.7031 Q1265.7031,236.3906 1265.5313,236.2188 Q1265.2188,235.8906 1264.6563,235.7031 Q1264.0938,235.5 1263.5313,235.5 Q1262.8281,235.5 1262.2344,235.7813 Q1261.6563,236.0625 1261.2031,236.6875 Q1260.75,237.3125 1260.75,238.1719 L1260.75,239.0938 Q1260.75,240.125 1261.5938,240.8125 Q1262.4375,241.5 1263.9375,241.5 Q1264.8281,241.5 1265.4531,241.2969 Q1265.8125,241.1875 1266.2188,240.8281 Q1266.4844,240.625 1266.625,240.5625 Q1266.7656,240.5 1266.9375,240.5 Q1267.2656,240.5 1267.5,240.7656 Q1267.75,241.0156 1267.75,241.375 Q1267.75,241.7188 1267.4063,242.125 Q1266.9063,242.7188 1266.1094,243.0469 Q1265.0625,243.5 1263.7813,243.5 Q1262.2813,243.5 1261.0781,242.9063 Q1260.1094,242.4375 1259.4219,241.4219 Q1258.75,240.4063 1258.75,239.2031 L1258.75,238.1094 Q1258.75,236.8594 1259.3438,235.7656 Q1259.9531,234.6719 1261,234.0938 Q1262.0625,233.5 1263.25,233.5 Q1263.9688,233.5 1264.5938,233.75 Q1265.2188,234 1265.75,234.5 Z " fill="#000000"/><text fill="#000000" font-family="sans-serif" font-size="12" lengthAdjust="spacing" textLength="48" x="1281.25" y="242.9102">Program</text><line style="stroke:#A80036;stroke-width:1.5;" x1="1234" x2="1347" y1="254" y2="254"/><ellipse cx="1244" cy="265" fill="#000000" rx="3" ry="3" style="stroke:#000000;stroke-width:1.0;"/><text fill="#000000" font-family="sans-serif" font-size="11" lengthAdjust="spacing" textLength="44" x="1253" y="269.4189">id: String!</text><text fill="#000000" font-family="sans-serif" font-size="11" lengthAdjust="spacing" textLength="68" x="1253" y="283.2549">handle: String!</text><text fill="#000000" font-family="sans-serif" font-size="11" lengthAdjust="spacing" textLength="52" x="1253" y="297.0908">title: String!</text><text fill="#000000" font-family="sans-serif" font-size="11" lengthAdjust="spacing" textLength="80" x="1253" y="310.9268">shortTitle: String!</text><text fill="#000000" font-family="sans-serif" font-size="11" lengthAdjust="spacing" textLength="89" x="1253" y="324.7627">description: String!</text><!--MD5=[0d024652d76f046c0b1c9dcca9ccb90b]
class Subprogram--><rect codeLine="80" fill="#FEFECE" filter="url(#f1oeqzznvc84zq)" height="109.1797" id="Subprogram" style="stroke:#A80036;stroke-width:1.5;" width="115" x="1303" y="444"/><ellipse cx="1324.3" cy="460" fill="#ADD1B2" rx="11" ry="11" style="stroke:#A80036;stroke-width:1.0;"/><path d="M1326.3,456.5 Q1326.5031,456 1326.7375,455.75 Q1326.9719,455.5 1327.2375,455.5 Q1327.7063,455.5 1328.0031,455.7813 Q1328.3,456.0625 1328.3,456.7188 L1328.3,458.2813 Q1328.3,458.9375 1328.0188,459.2188 Q1327.7375,459.5 1327.3,459.5 Q1326.9094,459.5 1326.6594,459.3281 Q1326.4094,459.1563 1326.3,458.7031 Q1326.2531,458.3906 1326.0813,458.2188 Q1325.7688,457.8906 1325.2063,457.7031 Q1324.6438,457.5 1324.0813,457.5 Q1323.3781,457.5 1322.7844,457.7813 Q1322.2063,458.0625 1321.7531,458.6875 Q1321.3,459.3125 1321.3,460.1719 L1321.3,461.0938 Q1321.3,462.125 1322.1438,462.8125 Q1322.9875,463.5 1324.4875,463.5 Q1325.3781,463.5 1326.0031,463.2969 Q1326.3625,463.1875 1326.7688,462.8281 Q1327.0344,462.625 1327.175,462.5625 Q1327.3156,462.5 1327.4875,462.5 Q1327.8156,462.5 1328.05,462.7656 Q1328.3,463.0156 1328.3,463.375 Q1328.3,463.7188 1327.9563,464.125 Q1327.4563,464.7188 1326.6594,465.0469 Q1325.6125,465.5 1324.3313,465.5 Q1322.8313,465.5 1321.6281,464.9063 Q1320.6594,464.4375 1319.9719,463.4219 Q1319.3,462.4063 1319.3,461.2031 L1319.3,460.1094 Q1319.3,458.8594 1319.8938,457.7656 Q1320.5031,456.6719 1321.55,456.0938 Q1322.6125,455.5 1323.8,455.5 Q1324.5188,455.5 1325.1438,455.75 Q1325.7688,456 1326.3,456.5 Z " fill="#000000"/><text fill="#000000" font-family="sans-serif" font-size="12" lengthAdjust="spacing" textLength="69" x="1339.7" y="464.9102">Subprogram</text><line style="stroke:#A80036;stroke-width:1.5;" x1="1304" x2="1417" y1="476" y2="476"/><ellipse cx="1314" cy="487" fill="#000000" rx="3" ry="3" style="stroke:#000000;stroke-width:1.0;"/><text fill="#000000" font-family="sans-serif" font-size="11" lengthAdjust="spacing" textLength="44" x="1323" y="491.4189">id: String!</text><text fill="#000000" font-family="sans-serif" font-size="11" lengthAdjust="spacing" textLength="68" x="1323" y="505.2549">handle: String!</text><text fill="#000000" font-family="sans-serif" font-size="11" lengthAdjust="spacing" textLength="52" x="1323" y="519.0908">title: String!</text><text fill="#000000" font-family="sans-serif" font-size="11" lengthAdjust="spacing" textLength="80" x="1323" y="532.9268">shortTitle: String!</text><text fill="#000000" font-family="sans-serif" font-size="11" lengthAdjust="spacing" textLength="89" x="1323" y="546.7627">description: String!</text><!--MD5=[79d378210367c0c6ec62ef762ddfbd1b]
class Project--><rect codeLine="88" fill="#FEFECE" filter="url(#f1oeqzznvc84zq)" height="109.1797" id="Project" style="stroke:#A80036;stroke-width:1.5;" width="115" x="1485" y="7"/><ellipse cx="1520.25" cy="23" fill="#ADD1B2" rx="11" ry="11" style="stroke:#A80036;stroke-width:1.0;"/><path d="M1522.25,19.5 Q1522.4531,19 1522.6875,18.75 Q1522.9219,18.5 1523.1875,18.5 Q1523.6563,18.5 1523.9531,18.7813 Q1524.25,19.0625 1524.25,19.7188 L1524.25,21.2813 Q1524.25,21.9375 1523.9688,22.2188 Q1523.6875,22.5 1523.25,22.5 Q1522.8594,22.5 1522.6094,22.3281 Q1522.3594,22.1563 1522.25,21.7031 Q1522.2031,21.3906 1522.0313,21.2188 Q1521.7188,20.8906 1521.1563,20.7031 Q1520.5938,20.5 1520.0313,20.5 Q1519.3281,20.5 1518.7344,20.7813 Q1518.1563,21.0625 1517.7031,21.6875 Q1517.25,22.3125 1517.25,23.1719 L1517.25,24.0938 Q1517.25,25.125 1518.0938,25.8125 Q1518.9375,26.5 1520.4375,26.5 Q1521.3281,26.5 1521.9531,26.2969 Q1522.3125,26.1875 1522.7188,25.8281 Q1522.9844,25.625 1523.125,25.5625 Q1523.2656,25.5 1523.4375,25.5 Q1523.7656,25.5 1524,25.7656 Q1524.25,26.0156 1524.25,26.375 Q1524.25,26.7188 1523.9063,27.125 Q1523.4063,27.7188 1522.6094,28.0469 Q1521.5625,28.5 1520.2813,28.5 Q1518.7813,28.5 1517.5781,27.9063 Q1516.6094,27.4375 1515.9219,26.4219 Q1515.25,25.4063 1515.25,24.2031 L1515.25,23.1094 Q1515.25,21.8594 1515.8438,20.7656 Q1516.4531,19.6719 1517.5,19.0938 Q1518.5625,18.5 1519.75,18.5 Q1520.4688,18.5 1521.0938,18.75 Q1521.7188,19 1522.25,19.5 Z " fill="#000000"/><text fill="#000000" font-family="sans-serif" font-size="12" lengthAdjust="spacing" textLength="38" x="1538.75" y="27.9102">Project</text><line style="stroke:#A80036;stroke-width:1.5;" x1="1486" x2="1599" y1="39" y2="39"/><ellipse cx="1496" cy="50" fill="#000000" rx="3" ry="3" style="stroke:#000000;stroke-width:1.0;"/><text fill="#000000" font-family="sans-serif" font-size="11" lengthAdjust="spacing" textLength="44" x="1505" y="54.4189">id: String!</text><text fill="#000000" font-family="sans-serif" font-size="11" lengthAdjust="spacing" textLength="66" x="1505" y="68.2549">handle: String</text><text fill="#000000" font-family="sans-serif" font-size="11" lengthAdjust="spacing" textLength="52" x="1505" y="82.0908">title: String!</text><text fill="#000000" font-family="sans-serif" font-size="11" lengthAdjust="spacing" textLength="80" x="1505" y="95.9268">shortTitle: String!</text><text fill="#000000" font-family="sans-serif" font-size="11" lengthAdjust="spacing" textLength="89" x="1505" y="109.7627">description: String!</text><!--MD5=[a0c27cfb527bdb20a6436baa93834728]
class Protocol--><rect codeLine="96" fill="#FEFECE" filter="url(#f1oeqzznvc84zq)" height="95.3438" id="Protocol" style="stroke:#A80036;stroke-width:1.5;" width="106" x="174.5" y="743"/><ellipse cx="202.55" cy="759" fill="#ADD1B2" rx="11" ry="11" style="stroke:#A80036;stroke-width:1.0;"/><path d="M204.55,755.5 Q204.7531,755 204.9875,754.75 Q205.2219,754.5 205.4875,754.5 Q205.9563,754.5 206.2531,754.7813 Q206.55,755.0625 206.55,755.7188 L206.55,757.2813 Q206.55,757.9375 206.2688,758.2188 Q205.9875,758.5 205.55,758.5 Q205.1594,758.5 204.9094,758.3281 Q204.6594,758.1563 204.55,757.7031 Q204.5031,757.3906 204.3313,757.2188 Q204.0188,756.8906 203.4563,756.7031 Q202.8938,756.5 202.3313,756.5 Q201.6281,756.5 201.0344,756.7813 Q200.4563,757.0625 200.0031,757.6875 Q199.55,758.3125 199.55,759.1719 L199.55,760.0938 Q199.55,761.125 200.3938,761.8125 Q201.2375,762.5 202.7375,762.5 Q203.6281,762.5 204.2531,762.2969 Q204.6125,762.1875 205.0188,761.8281 Q205.2844,761.625 205.425,761.5625 Q205.5656,761.5 205.7375,761.5 Q206.0656,761.5 206.3,761.7656 Q206.55,762.0156 206.55,762.375 Q206.55,762.7188 206.2063,763.125 Q205.7063,763.7188 204.9094,764.0469 Q203.8625,764.5 202.5813,764.5 Q201.0813,764.5 199.8781,763.9063 Q198.9094,763.4375 198.2219,762.4219 Q197.55,761.4063 197.55,760.2031 L197.55,759.1094 Q197.55,757.8594 198.1438,756.7656 Q198.7531,755.6719 199.8,755.0938 Q200.8625,754.5 202.05,754.5 Q202.7688,754.5 203.3938,754.75 Q204.0188,755 204.55,755.5 Z " fill="#000000"/><text fill="#000000" font-family="sans-serif" font-size="12" lengthAdjust="spacing" textLength="45" x="219.45" y="763.9102">Protocol</text><line style="stroke:#A80036;stroke-width:1.5;" x1="175.5" x2="279.5" y1="775" y2="775"/><ellipse cx="185.5" cy="786" fill="#000000" rx="3" ry="3" style="stroke:#000000;stroke-width:1.0;"/><text fill="#000000" font-family="sans-serif" font-size="11" lengthAdjust="spacing" textLength="44" x="194.5" y="790.4189">id: String!</text><text fill="#000000" font-family="sans-serif" font-size="11" lengthAdjust="spacing" textLength="66" x="194.5" y="804.2549">handle: String</text><text fill="#000000" font-family="sans-serif" font-size="11" lengthAdjust="spacing" textLength="52" x="194.5" y="818.0908">title: String!</text><text fill="#000000" font-family="sans-serif" font-size="11" lengthAdjust="spacing" textLength="80" x="194.5" y="831.9268">shortTitle: String!</text><!--MD5=[09ce52be0ee7de43c61b6e2d59bf108b]
class Person--><rect codeLine="103" fill="#FEFECE" filter="url(#f1oeqzznvc84zq)" height="123.0156" id="Person" style="stroke:#A80036;stroke-width:1.5;" width="117" x="1916" y="729"/><ellipse cx="1951.25" cy="745" fill="#ADD1B2" rx="11" ry="11" style="stroke:#A80036;stroke-width:1.0;"/><path d="M1953.25,741.5 Q1953.4531,741 1953.6875,740.75 Q1953.9219,740.5 1954.1875,740.5 Q1954.6563,740.5 1954.9531,740.7813 Q1955.25,741.0625 1955.25,741.7188 L1955.25,743.2813 Q1955.25,743.9375 1954.9688,744.2188 Q1954.6875,744.5 1954.25,744.5 Q1953.8594,744.5 1953.6094,744.3281 Q1953.3594,744.1563 1953.25,743.7031 Q1953.2031,743.3906 1953.0313,743.2188 Q1952.7188,742.8906 1952.1563,742.7031 Q1951.5938,742.5 1951.0313,742.5 Q1950.3281,742.5 1949.7344,742.7813 Q1949.1563,743.0625 1948.7031,743.6875 Q1948.25,744.3125 1948.25,745.1719 L1948.25,746.0938 Q1948.25,747.125 1949.0938,747.8125 Q1949.9375,748.5 1951.4375,748.5 Q1952.3281,748.5 1952.9531,748.2969 Q1953.3125,748.1875 1953.7188,747.8281 Q1953.9844,747.625 1954.125,747.5625 Q1954.2656,747.5 1954.4375,747.5 Q1954.7656,747.5 1955,747.7656 Q1955.25,748.0156 1955.25,748.375 Q1955.25,748.7188 1954.9063,749.125 Q1954.4063,749.7188 1953.6094,750.0469 Q1952.5625,750.5 1951.2813,750.5 Q1949.7813,750.5 1948.5781,749.9063 Q1947.6094,749.4375 1946.9219,748.4219 Q1946.25,747.4063 1946.25,746.2031 L1946.25,745.1094 Q1946.25,743.8594 1946.8438,742.7656 Q1947.4531,741.6719 1948.5,741.0938 Q1949.5625,740.5 1950.75,740.5 Q1951.4688,740.5 1952.0938,740.75 Q1952.7188,741 1953.25,741.5 Z " fill="#000000"/><text fill="#000000" font-family="sans-serif" font-size="12" lengthAdjust="spacing" textLength="40" x="1969.75" y="749.9102">Person</text><line style="stroke:#A80036;stroke-width:1.5;" x1="1917" x2="2032" y1="761" y2="761"/><ellipse cx="1927" cy="772" fill="#000000" rx="3" ry="3" style="stroke:#000000;stroke-width:1.0;"/><text fill="#000000" font-family="sans-serif" font-size="11" lengthAdjust="spacing" textLength="44" x="1936" y="776.4189">id: String!</text><text fill="#000000" font-family="sans-serif" font-size="11" lengthAdjust="spacing" textLength="62" x="1936" y="790.2549">name: String!</text><text fill="#000000" font-family="sans-serif" font-size="11" lengthAdjust="spacing" textLength="89" x="1936" y="804.0908">givenName: String!</text><text fill="#000000" font-family="sans-serif" font-size="11" lengthAdjust="spacing" textLength="91" x="1936" y="817.9268">familyName: String!</text><text fill="#000000" font-family="sans-serif" font-size="11" lengthAdjust="spacing" textLength="66" x="1936" y="831.7627">handle: String</text><text fill="#000000" font-family="sans-serif" font-size="11" lengthAdjust="spacing" textLength="58" x="1936" y="845.5986">orcid: String</text><!--MD5=[86c7c362de55a38b660185a1328fe18d]
class Organization--><rect codeLine="112" fill="#FEFECE" filter="url(#f1oeqzznvc84zq)" height="95.3438" id="Organization" style="stroke:#A80036;stroke-width:1.5;" width="101" x="1656" y="743"/><ellipse cx="1671" cy="759" fill="#ADD1B2" rx="11" ry="11" style="stroke:#A80036;stroke-width:1.0;"/><path d="M1673,755.5 Q1673.2031,755 1673.4375,754.75 Q1673.6719,754.5 1673.9375,754.5 Q1674.4063,754.5 1674.7031,754.7813 Q1675,755.0625 1675,755.7188 L1675,757.2813 Q1675,757.9375 1674.7188,758.2188 Q1674.4375,758.5 1674,758.5 Q1673.6094,758.5 1673.3594,758.3281 Q1673.1094,758.1563 1673,757.7031 Q1672.9531,757.3906 1672.7813,757.2188 Q1672.4688,756.8906 1671.9063,756.7031 Q1671.3438,756.5 1670.7813,756.5 Q1670.0781,756.5 1669.4844,756.7813 Q1668.9063,757.0625 1668.4531,757.6875 Q1668,758.3125 1668,759.1719 L1668,760.0938 Q1668,761.125 1668.8438,761.8125 Q1669.6875,762.5 1671.1875,762.5 Q1672.0781,762.5 1672.7031,762.2969 Q1673.0625,762.1875 1673.4688,761.8281 Q1673.7344,761.625 1673.875,761.5625 Q1674.0156,761.5 1674.1875,761.5 Q1674.5156,761.5 1674.75,761.7656 Q1675,762.0156 1675,762.375 Q1675,762.7188 1674.6563,763.125 Q1674.1563,763.7188 1673.3594,764.0469 Q1672.3125,764.5 1671.0313,764.5 Q1669.5313,764.5 1668.3281,763.9063 Q1667.3594,763.4375 1666.6719,762.4219 Q1666,761.4063 1666,760.2031 L1666,759.1094 Q1666,757.8594 1666.5938,756.7656 Q1667.2031,755.6719 1668.25,755.0938 Q1669.3125,754.5 1670.5,754.5 Q1671.2188,754.5 1671.8438,754.75 Q1672.4688,755 1673,755.5 Z " fill="#000000"/><text fill="#000000" font-family="sans-serif" font-size="12" lengthAdjust="spacing" textLength="69" x="1685" y="763.9102">Organization</text><line style="stroke:#A80036;stroke-width:1.5;" x1="1657" x2="1756" y1="775" y2="775"/><ellipse cx="1667" cy="786" fill="#000000" rx="3" ry="3" style="stroke:#000000;stroke-width:1.0;"/><text fill="#000000" font-family="sans-serif" font-size="11" lengthAdjust="spacing" textLength="42" x="1676" y="790.4189">id: String</text><text fill="#000000" font-family="sans-serif" font-size="11" lengthAdjust="spacing" textLength="62" x="1676" y="804.2549">name: String!</text><text fill="#000000" font-family="sans-serif" font-size="11" lengthAdjust="spacing" textLength="66" x="1676" y="818.0908">handle: String</text><text fill="#000000" font-family="sans-serif" font-size="11" lengthAdjust="spacing" textLength="48" x="1676" y="831.9268">ror: String</text><!--MD5=[26ef8bb48695b3f7aeebf8a3bb6e7395]
class License--><rect codeLine="119" fill="#FEFECE" filter="url(#f1oeqzznvc84zq)" height="109.1797" id="License" style="stroke:#A80036;stroke-width:1.5;" width="106" x="1120.5" y="590"/><ellipse cx="1149" cy="606" fill="#ADD1B2" rx="11" ry="11" style="stroke:#A80036;stroke-width:1.0;"/><path d="M1151,602.5 Q1151.2031,602 1151.4375,601.75 Q1151.6719,601.5 1151.9375,601.5 Q1152.4063,601.5 1152.7031,601.7813 Q1153,602.0625 1153,602.7188 L1153,604.2813 Q1153,604.9375 1152.7188,605.2188 Q1152.4375,605.5 1152,605.5 Q1151.6094,605.5 1151.3594,605.3281 Q1151.1094,605.1563 1151,604.7031 Q1150.9531,604.3906 1150.7813,604.2188 Q1150.4688,603.8906 1149.9063,603.7031 Q1149.3438,603.5 1148.7813,603.5 Q1148.0781,603.5 1147.4844,603.7813 Q1146.9063,604.0625 1146.4531,604.6875 Q1146,605.3125 1146,606.1719 L1146,607.0938 Q1146,608.125 1146.8438,608.8125 Q1147.6875,609.5 1149.1875,609.5 Q1150.0781,609.5 1150.7031,609.2969 Q1151.0625,609.1875 1151.4688,608.8281 Q1151.7344,608.625 1151.875,608.5625 Q1152.0156,608.5 1152.1875,608.5 Q1152.5156,608.5 1152.75,608.7656 Q1153,609.0156 1153,609.375 Q1153,609.7188 1152.6563,610.125 Q1152.1563,610.7188 1151.3594,611.0469 Q1150.3125,611.5 1149.0313,611.5 Q1147.5313,611.5 1146.3281,610.9063 Q1145.3594,610.4375 1144.6719,609.4219 Q1144,608.4063 1144,607.2031 L1144,606.1094 Q1144,604.8594 1144.5938,603.7656 Q1145.2031,602.6719 1146.25,602.0938 Q1147.3125,601.5 1148.5,601.5 Q1149.2188,601.5 1149.8438,601.75 Q1150.4688,602 1151,602.5 Z " fill="#000000"/><text fill="#000000" font-family="sans-serif" font-size="12" lengthAdjust="spacing" textLength="44" x="1166" y="610.9102">License</text><line style="stroke:#A80036;stroke-width:1.5;" x1="1121.5" x2="1225.5" y1="622" y2="622"/><ellipse cx="1131.5" cy="633" fill="#000000" rx="3" ry="3" style="stroke:#000000;stroke-width:1.0;"/><text fill="#000000" font-family="sans-serif" font-size="11" lengthAdjust="spacing" textLength="44" x="1140.5" y="637.4189">id: String!</text><text fill="#000000" font-family="sans-serif" font-size="11" lengthAdjust="spacing" textLength="66" x="1140.5" y="651.2549">handle: String</text><text fill="#000000" font-family="sans-serif" font-size="11" lengthAdjust="spacing" textLength="62" x="1140.5" y="665.0908">name: String!</text><text fill="#000000" font-family="sans-serif" font-size="11" lengthAdjust="spacing" textLength="52" x="1140.5" y="678.9268">title: String!</text><text fill="#000000" font-family="sans-serif" font-size="11" lengthAdjust="spacing" textLength="80" x="1140.5" y="692.7627">shortTitle: String!</text><!--MD5=[7e4b3025ff4a9dad6b7ac0580b624a44]
class Award--><rect codeLine="127" fill="#FEFECE" filter="url(#f1oeqzznvc84zq)" height="109.1797" id="Award" style="stroke:#A80036;stroke-width:1.5;" width="124" x="1851.5" y="222"/><ellipse cx="1892.6" cy="238" fill="#ADD1B2" rx="11" ry="11" style="stroke:#A80036;stroke-width:1.0;"/><path d="M1894.6,234.5 Q1894.8031,234 1895.0375,233.75 Q1895.2719,233.5 1895.5375,233.5 Q1896.0063,233.5 1896.3031,233.7813 Q1896.6,234.0625 1896.6,234.7188 L1896.6,236.2813 Q1896.6,236.9375 1896.3188,237.2188 Q1896.0375,237.5 1895.6,237.5 Q1895.2094,237.5 1894.9594,237.3281 Q1894.7094,237.1563 1894.6,236.7031 Q1894.5531,236.3906 1894.3813,236.2188 Q1894.0688,235.8906 1893.5063,235.7031 Q1892.9438,235.5 1892.3813,235.5 Q1891.6781,235.5 1891.0844,235.7813 Q1890.5063,236.0625 1890.0531,236.6875 Q1889.6,237.3125 1889.6,238.1719 L1889.6,239.0938 Q1889.6,240.125 1890.4438,240.8125 Q1891.2875,241.5 1892.7875,241.5 Q1893.6781,241.5 1894.3031,241.2969 Q1894.6625,241.1875 1895.0688,240.8281 Q1895.3344,240.625 1895.475,240.5625 Q1895.6156,240.5 1895.7875,240.5 Q1896.1156,240.5 1896.35,240.7656 Q1896.6,241.0156 1896.6,241.375 Q1896.6,241.7188 1896.2563,242.125 Q1895.7563,242.7188 1894.9594,243.0469 Q1893.9125,243.5 1892.6313,243.5 Q1891.1313,243.5 1889.9281,242.9063 Q1888.9594,242.4375 1888.2719,241.4219 Q1887.6,240.4063 1887.6,239.2031 L1887.6,238.1094 Q1887.6,236.8594 1888.1938,235.7656 Q1888.8031,234.6719 1889.85,234.0938 Q1890.9125,233.5 1892.1,233.5 Q1892.8188,233.5 1893.4438,233.75 Q1894.0688,234 1894.6,234.5 Z " fill="#000000"/><text fill="#000000" font-family="sans-serif" font-size="12" lengthAdjust="spacing" textLength="34" x="1912.4" y="242.9102">Award</text><line style="stroke:#A80036;stroke-width:1.5;" x1="1852.5" x2="1974.5" y1="254" y2="254"/><ellipse cx="1862.5" cy="265" fill="#000000" rx="3" ry="3" style="stroke:#000000;stroke-width:1.0;"/><text fill="#000000" font-family="sans-serif" font-size="11" lengthAdjust="spacing" textLength="42" x="1871.5" y="269.4189">id: String</text><text fill="#000000" font-family="sans-serif" font-size="11" lengthAdjust="spacing" textLength="62" x="1871.5" y="283.2549">name: String!</text><text fill="#000000" font-family="sans-serif" font-size="11" lengthAdjust="spacing" textLength="52" x="1871.5" y="297.0908">title: String!</text><text fill="#000000" font-family="sans-serif" font-size="11" lengthAdjust="spacing" textLength="77" x="1871.5" y="310.9268">identifier: String!</text><text fill="#000000" font-family="sans-serif" font-size="11" lengthAdjust="spacing" textLength="98" x="1871.5" y="324.7627">reportSymbol: String</text><!--MD5=[bc131368981f76e8ad3a9820af089aee]
class Technique--><rect codeLine="135" fill="#FEFECE" filter="url(#f1oeqzznvc84zq)" height="81.5078" id="Technique" style="stroke:#A80036;stroke-width:1.5;" width="92" x="188.5" y="457.5"/><ellipse cx="204.4" cy="473.5" fill="#ADD1B2" rx="11" ry="11" style="stroke:#A80036;stroke-width:1.0;"/><path d="M206.4,470 Q206.6031,469.5 206.8375,469.25 Q207.0719,469 207.3375,469 Q207.8063,469 208.1031,469.2813 Q208.4,469.5625 208.4,470.2188 L208.4,471.7813 Q208.4,472.4375 208.1188,472.7188 Q207.8375,473 207.4,473 Q207.0094,473 206.7594,472.8281 Q206.5094,472.6563 206.4,472.2031 Q206.3531,471.8906 206.1813,471.7188 Q205.8688,471.3906 205.3063,471.2031 Q204.7438,471 204.1813,471 Q203.4781,471 202.8844,471.2813 Q202.3063,471.5625 201.8531,472.1875 Q201.4,472.8125 201.4,473.6719 L201.4,474.5938 Q201.4,475.625 202.2438,476.3125 Q203.0875,477 204.5875,477 Q205.4781,477 206.1031,476.7969 Q206.4625,476.6875 206.8688,476.3281 Q207.1344,476.125 207.275,476.0625 Q207.4156,476 207.5875,476 Q207.9156,476 208.15,476.2656 Q208.4,476.5156 208.4,476.875 Q208.4,477.2188 208.0563,477.625 Q207.5563,478.2188 206.7594,478.5469 Q205.7125,479 204.4313,479 Q202.9313,479 201.7281,478.4063 Q200.7594,477.9375 200.0719,476.9219 Q199.4,475.9063 199.4,474.7031 L199.4,473.6094 Q199.4,472.3594 199.9938,471.2656 Q200.6031,470.1719 201.65,469.5938 Q202.7125,469 203.9,469 Q204.6188,469 205.2438,469.25 Q205.8688,469.5 206.4,470 Z " fill="#000000"/><text fill="#000000" font-family="sans-serif" font-size="12" lengthAdjust="spacing" textLength="58" x="218.6" y="478.4102">Technique</text><line style="stroke:#A80036;stroke-width:1.5;" x1="189.5" x2="279.5" y1="489.5" y2="489.5"/><ellipse cx="199.5" cy="500.5" fill="#000000" rx="3" ry="3" style="stroke:#000000;stroke-width:1.0;"/><text fill="#000000" font-family="sans-serif" font-size="11" lengthAdjust="spacing" textLength="44" x="208.5" y="504.9189">id: String!</text><text fill="#000000" font-family="sans-serif" font-size="11" lengthAdjust="spacing" textLength="66" x="208.5" y="518.7549">handle: String</text><text fill="#000000" font-family="sans-serif" font-size="11" lengthAdjust="spacing" textLength="62" x="208.5" y="532.5908">name: String!</text><!--MD5=[4b1bbb36bf22db452d2f18c9a96e40ec]
class Species--><rect codeLine="141" fill="#FEFECE" filter="url(#f1oeqzznvc84zq)" height="123.0156" id="Species" style="stroke:#A80036;stroke-width:1.5;" width="149" x="387" y="437"/><ellipse cx="434.75" cy="453" fill="#ADD1B2" rx="11" ry="11" style="stroke:#A80036;stroke-width:1.0;"/><path d="M436.75,449.5 Q436.9531,449 437.1875,448.75 Q437.4219,448.5 437.6875,448.5 Q438.1563,448.5 438.4531,448.7813 Q438.75,449.0625 438.75,449.7188 L438.75,451.2813 Q438.75,451.9375 438.4688,452.2188 Q438.1875,452.5 437.75,452.5 Q437.3594,452.5 437.1094,452.3281 Q436.8594,452.1563 436.75,451.7031 Q436.7031,451.3906 436.5313,451.2188 Q436.2188,450.8906 435.6563,450.7031 Q435.0938,450.5 434.5313,450.5 Q433.8281,450.5 433.2344,450.7813 Q432.6563,451.0625 432.2031,451.6875 Q431.75,452.3125 431.75,453.1719 L431.75,454.0938 Q431.75,455.125 432.5938,455.8125 Q433.4375,456.5 434.9375,456.5 Q435.8281,456.5 436.4531,456.2969 Q436.8125,456.1875 437.2188,455.8281 Q437.4844,455.625 437.625,455.5625 Q437.7656,455.5 437.9375,455.5 Q438.2656,455.5 438.5,455.7656 Q438.75,456.0156 438.75,456.375 Q438.75,456.7188 438.4063,457.125 Q437.9063,457.7188 437.1094,458.0469 Q436.0625,458.5 434.7813,458.5 Q433.2813,458.5 432.0781,457.9063 Q431.1094,457.4375 430.4219,456.4219 Q429.75,455.4063 429.75,454.2031 L429.75,453.1094 Q429.75,451.8594 430.3438,450.7656 Q430.9531,449.6719 432,449.0938 Q433.0625,448.5 434.25,448.5 Q434.9688,448.5 435.5938,448.75 Q436.2188,449 436.75,449.5 Z " fill="#000000"/><text fill="#000000" font-family="sans-serif" font-size="12" lengthAdjust="spacing" textLength="45" x="455.25" y="457.9102">Species</text><line style="stroke:#A80036;stroke-width:1.5;" x1="388" x2="535" y1="469" y2="469"/><ellipse cx="398" cy="480" fill="#000000" rx="3" ry="3" style="stroke:#000000;stroke-width:1.0;"/><text fill="#000000" font-family="sans-serif" font-size="11" lengthAdjust="spacing" textLength="44" x="407" y="484.4189">id: String!</text><text fill="#000000" font-family="sans-serif" font-size="11" lengthAdjust="spacing" textLength="62" x="407" y="498.2549">name: String!</text><text fill="#000000" font-family="sans-serif" font-size="11" lengthAdjust="spacing" textLength="108" x="407" y="512.0908">common_name: String!</text><text fill="#000000" font-family="sans-serif" font-size="11" lengthAdjust="spacing" textLength="109" x="407" y="525.9268">scientific_name: String</text><text fill="#000000" font-family="sans-serif" font-size="11" lengthAdjust="spacing" textLength="123" x="407" y="539.7627">ncbi_taxonomy_id: String!</text><text fill="#000000" font-family="sans-serif" font-size="11" lengthAdjust="spacing" textLength="50" x="407" y="553.5986">rrid: String</text><!--MD5=[0c483ad81e246f04289bb2d76adb8ee1]
class SpecimenCount--><rect codeLine="150" fill="#FEFECE" filter="url(#f1oeqzznvc84zq)" height="67.6719" id="SpecimenCount" style="stroke:#A80036;stroke-width:1.5;" width="121" x="571" y="464.5"/><ellipse cx="586" cy="480.5" fill="#ADD1B2" rx="11" ry="11" style="stroke:#A80036;stroke-width:1.0;"/><path d="M588,477 Q588.2031,476.5 588.4375,476.25 Q588.6719,476 588.9375,476 Q589.4063,476 589.7031,476.2813 Q590,476.5625 590,477.2188 L590,478.7813 Q590,479.4375 589.7188,479.7188 Q589.4375,480 589,480 Q588.6094,480 588.3594,479.8281 Q588.1094,479.6563 588,479.2031 Q587.9531,478.8906 587.7813,478.7188 Q587.4688,478.3906 586.9063,478.2031 Q586.3438,478 585.7813,478 Q585.0781,478 584.4844,478.2813 Q583.9063,478.5625 583.4531,479.1875 Q583,479.8125 583,480.6719 L583,481.5938 Q583,482.625 583.8438,483.3125 Q584.6875,484 586.1875,484 Q587.0781,484 587.7031,483.7969 Q588.0625,483.6875 588.4688,483.3281 Q588.7344,483.125 588.875,483.0625 Q589.0156,483 589.1875,483 Q589.5156,483 589.75,483.2656 Q590,483.5156 590,483.875 Q590,484.2188 589.6563,484.625 Q589.1563,485.2188 588.3594,485.5469 Q587.3125,486 586.0313,486 Q584.5313,486 583.3281,485.4063 Q582.3594,484.9375 581.6719,483.9219 Q581,482.9063 581,481.7031 L581,480.6094 Q581,479.3594 581.5938,478.2656 Q582.2031,477.1719 583.25,476.5938 Q584.3125,476 585.5,476 Q586.2188,476 586.8438,476.25 Q587.4688,476.5 588,477 Z " fill="#000000"/><text fill="#000000" font-family="sans-serif" font-size="12" lengthAdjust="spacing" textLength="89" x="600" y="485.4102">SpecimenCount</text><line style="stroke:#A80036;stroke-width:1.5;" x1="572" x2="691" y1="496.5" y2="496.5"/><ellipse cx="582" cy="507.5" fill="#000000" rx="3" ry="3" style="stroke:#000000;stroke-width:1.0;"/><text fill="#000000" font-family="sans-serif" font-size="11" lengthAdjust="spacing" textLength="44" x="591" y="511.9189">id: String!</text><text fill="#000000" font-family="sans-serif" font-size="11" lengthAdjust="spacing" textLength="44" x="591" y="525.7549">count: Int</text><!--MD5=[72ce1314beffbcf60a64ee91fbbc10dc]
class Contact--><rect codeLine="155" fill="#FEFECE" filter="url(#f1oeqzznvc84zq)" height="81.5078" id="Contact" style="stroke:#A80036;stroke-width:1.5;" width="88" x="1595.5" y="235.5"/><ellipse cx="1616.8" cy="251.5" fill="#ADD1B2" rx="11" ry="11" style="stroke:#A80036;stroke-width:1.0;"/><path d="M1618.8,248 Q1619.0031,247.5 1619.2375,247.25 Q1619.4719,247 1619.7375,247 Q1620.2063,247 1620.5031,247.2813 Q1620.8,247.5625 1620.8,248.2188 L1620.8,249.7813 Q1620.8,250.4375 1620.5188,250.7188 Q1620.2375,251 1619.8,251 Q1619.4094,251 1619.1594,250.8281 Q1618.9094,250.6563 1618.8,250.2031 Q1618.7531,249.8906 1618.5813,249.7188 Q1618.2688,249.3906 1617.7063,249.2031 Q1617.1438,249 1616.5813,249 Q1615.8781,249 1615.2844,249.2813 Q1614.7063,249.5625 1614.2531,250.1875 Q1613.8,250.8125 1613.8,251.6719 L1613.8,252.5938 Q1613.8,253.625 1614.6438,254.3125 Q1615.4875,255 1616.9875,255 Q1617.8781,255 1618.5031,254.7969 Q1618.8625,254.6875 1619.2688,254.3281 Q1619.5344,254.125 1619.675,254.0625 Q1619.8156,254 1619.9875,254 Q1620.3156,254 1620.55,254.2656 Q1620.8,254.5156 1620.8,254.875 Q1620.8,255.2188 1620.4563,255.625 Q1619.9563,256.2188 1619.1594,256.5469 Q1618.1125,257 1616.8313,257 Q1615.3313,257 1614.1281,256.4063 Q1613.1594,255.9375 1612.4719,254.9219 Q1611.8,253.9063 1611.8,252.7031 L1611.8,251.6094 Q1611.8,250.3594 1612.3938,249.2656 Q1613.0031,248.1719 1614.05,247.5938 Q1615.1125,247 1616.3,247 Q1617.0188,247 1617.6438,247.25 Q1618.2688,247.5 1618.8,248 Z " fill="#000000"/><text fill="#000000" font-family="sans-serif" font-size="12" lengthAdjust="spacing" textLength="42" x="1632.2" y="256.4102">Contact</text><line style="stroke:#A80036;stroke-width:1.5;" x1="1596.5" x2="1682.5" y1="267.5" y2="267.5"/><ellipse cx="1606.5" cy="278.5" fill="#000000" rx="3" ry="3" style="stroke:#000000;stroke-width:1.0;"/><text fill="#000000" font-family="sans-serif" font-size="11" lengthAdjust="spacing" textLength="44" x="1615.5" y="282.9189">id: String!</text><text fill="#000000" font-family="sans-serif" font-size="11" lengthAdjust="spacing" textLength="62" x="1615.5" y="296.7549">name: String!</text><text fill="#000000" font-family="sans-serif" font-size="11" lengthAdjust="spacing" textLength="58" x="1615.5" y="310.5908">email: String</text><!--MD5=[cccae1d58fdc550f076c5fbfd09824f0]
entity webResource--><ellipse cx="1173.5" cy="943" fill="#FEFECE" filter="url(#f1oeqzznvc84zq)" rx="8" ry="8" style="stroke:#A80036;stroke-width:1.5;"/><text fill="#000000" font-family="sans-serif" font-size="14" lengthAdjust="spacing" textLength="86" x="1130.5" y="974.5332">webResource</text><!--MD5=[61a9242c78663995570ae0ee6c2d6c31]
link Agent to Person--><path codeLine="162" d="M1855.54,539.52 C1877.87,586.43 1915.23,664.95 1942.13,721.49 " fill="none" id="Agent-to-Person" style="stroke:#A80036;stroke-width:1.0;"/><line style="stroke:#A80036;stroke-width:1.0;" x1="1940.9684" x2="1945.69" y1="719.0249" y2="728.96"/><ellipse cx="1940.9684" cy="719.0249" fill="none" rx="4" ry="4" style="stroke:#A80036;stroke-width:1.0;"/><line style="stroke:#A80036;stroke-width:1.0;" x1="1947.5858" x2="1940.3603" y1="723.6303" y2="727.0642"/><text fill="#000000" font-family="sans-serif" font-size="13" lengthAdjust="spacing" textLength="39" x="1930.5" y="649.9951">person</text><!--MD5=[d63593e2149117e0632d31f5ba9abf0d]
link Agent to Organization--><path codeLine="163" d="M1793.64,539.59 C1780.04,554.29 1766.08,571.82 1756.5,590 C1732.48,635.61 1719.65,693.23 1713.03,734.8 " fill="none" id="Agent-to-Organization" style="stroke:#A80036;stroke-width:1.0;"/><line style="stroke:#A80036;stroke-width:1.0;" x1="1713.4482" x2="1711.78" y1="732.0272" y2="742.9"/><ellipse cx="1713.4482" cy="732.0272" fill="none" rx="4" ry="4" style="stroke:#A80036;stroke-width:1.0;"/><line style="stroke:#A80036;stroke-width:1.0;" x1="1716.3404" x2="1708.4329" y1="739.5529" y2="738.3396"/><text fill="#000000" font-family="sans-serif" font-size="13" lengthAdjust="spacing" textLength="70" x="1757.5" y="649.9951">organization</text><!--MD5=[a267a34cd2a24424241d8b7224778ebb]
link Agent to AgentType--><path codeLine="165" d="M1836.5,539.52 C1836.5,594.69 1836.5,693.56 1836.5,748.99 " fill="none" id="Agent-to-AgentType" style="stroke:#A80036;stroke-width:1.0;"/><line style="stroke:#A80036;stroke-width:1.0;" x1="1840.5" x2="1832.5" y1="752.18" y2="752.18"/><line style="stroke:#A80036;stroke-width:1.0;" x1="1840.5" x2="1832.5" y1="749.18" y2="749.18"/><line style="stroke:#A80036;stroke-width:1.0;" x1="1836.5" x2="1836.5" y1="748.18" y2="756.18"/><text fill="#000000" font-family="sans-serif" font-size="13" lengthAdjust="spacing" textLength="25" x="1837.5" y="649.9951">type</text><!--MD5=[18f772d9217cabcec5f9f7f07081c2c9]
link SpecimenCount to SpecimenType--><path codeLine="167" d="M631.5,532.77 C631.5,584.13 631.5,682.95 631.5,741.88 " fill="none" id="SpecimenCount-to-SpecimenType" style="stroke:#A80036;stroke-width:1.0;"/><line style="stroke:#A80036;stroke-width:1.0;" x1="635.5" x2="627.5" y1="745.21" y2="745.21"/><line style="stroke:#A80036;stroke-width:1.0;" x1="635.5" x2="627.5" y1="742.21" y2="742.21"/><line style="stroke:#A80036;stroke-width:1.0;" x1="631.5" x2="631.5" y1="741.21" y2="749.21"/><text fill="#000000" font-family="sans-serif" font-size="13" lengthAdjust="spacing" textLength="84" x="632.5" y="649.9951">specimenType</text><!--MD5=[969032c10163a82866223d6f7b3e76db]
link WebResource to WebResourceType--><path codeLine="169" d="M75.5,1157.08 C75.5,1179.9 75.5,1205.67 75.5,1227.82 " fill="none" id="WebResource-to-WebResourceType" style="stroke:#A80036;stroke-width:1.0;"/><line style="stroke:#A80036;stroke-width:1.0;" x1="79.5" x2="71.5" y1="1230.88" y2="1230.88"/><line style="stroke:#A80036;stroke-width:1.0;" x1="79.5" x2="71.5" y1="1227.88" y2="1227.88"/><line style="stroke:#A80036;stroke-width:1.0;" x1="75.5" x2="75.5" y1="1226.88" y2="1234.88"/><text fill="#000000" font-family="sans-serif" font-size="13" lengthAdjust="spacing" textLength="25" x="76.5" y="1201.4951">type</text><!--MD5=[57e0500ffaae071cdf9ef44bdbf6d2fc]
link Technique to Protocol--><path codeLine="171" d="M233.53,539.52 C232.31,590.17 230.2,677.65 228.83,734.54 " fill="none" id="Technique-to-Protocol" style="stroke:#A80036;stroke-width:1.0;"/><line style="stroke:#A80036;stroke-width:1.0;" x1="228.8299" x2="234.6281" y1="734.7025" y2="742.85"/><line style="stroke:#A80036;stroke-width:1.0;" x1="228.8299" x2="222.6319" y1="734.7025" y2="742.55"/><line style="stroke:#A80036;stroke-width:1.0;" x1="228.8299" x2="228.63" y1="734.7025" y2="742.7"/><line style="stroke:#A80036;stroke-width:1.0;" x1="232.8787" x2="224.8812" y1="732.8031" y2="732.6032"/><text fill="#000000" font-family="sans-serif" font-size="13" lengthAdjust="spacing" textLength="46" x="233.5" y="649.9951">protocol</text><!--MD5=[f8fb2f1850b079b732cbb33b814fe75a]
link Collection to Modality--><path codeLine="173" d="M850.4,305.06 C893.35,324.68 948.87,353.76 991.5,389 C1012.84,406.64 1032.64,430.12 1048.04,450.72 " fill="none" id="Collection-to-Modality" style="stroke:#A80036;stroke-width:1.0;"/><line style="stroke:#A80036;stroke-width:1.0;" x1="1048.1441" x2="1057.7157" y1="450.8524" y2="453.7481"/><line style="stroke:#A80036;stroke-width:1.0;" x1="1048.1441" x2="1048.0443" y1="450.8524" y2="460.8519"/><line style="stroke:#A80036;stroke-width:1.0;" x1="1048.1441" x2="1052.88" y1="450.8524" y2="457.3"/><line style="stroke:#A80036;stroke-width:1.0;" x1="1050.184" x2="1043.7364" y1="446.8726" y2="451.6084"/><text fill="#000000" font-family="sans-serif" font-size="13" lengthAdjust="spacing" textLength="49" x="1008.5" y="403.4951">modality</text><!--MD5=[4e019add3abd1809608e3c15e8db965e]
link Collection to Species--><path codeLine="174" d="M716.7,322.01 C686.35,342.33 650.03,366.76 617.5,389 C593.23,405.59 566.95,423.78 543,440.44 " fill="none" id="Collection-to-Species" style="stroke:#A80036;stroke-width:1.0;"/><line style="stroke:#A80036;stroke-width:1.0;" x1="542.8772" x2="539.7364" y1="440.5315" y2="450.0254"/><line style="stroke:#A80036;stroke-width:1.0;" x1="542.8772" x2="532.8836" y1="440.5315" y2="440.1746"/><line style="stroke:#A80036;stroke-width:1.0;" x1="542.8772" x2="536.31" y1="440.5315" y2="445.1"/><line style="stroke:#A80036;stroke-width:1.0;" x1="546.8033" x2="542.2348" y1="442.673" y2="436.1057"/><text fill="#000000" font-family="sans-serif" font-size="13" lengthAdjust="spacing" textLength="45" x="618.5" y="403.4951">species</text><!--MD5=[cfeb7f884558140f1d827536144b603e]
link Collection to SpecimenCount--><path codeLine="175" d="M716.81,345.79 C704.98,359.54 693.32,374.3 683.5,389 C669.34,410.19 656.87,435.83 647.69,456.86 " fill="none" id="Collection-to-SpecimenCount" style="stroke:#A80036;stroke-width:1.0;"/><line style="stroke:#A80036;stroke-width:1.0;" x1="647.6148" x2="649.9738" y1="457.0383" y2="466.7561"/><line style="stroke:#A80036;stroke-width:1.0;" x1="647.6148" x2="638.9462" y1="457.0383" y2="462.0239"/><line style="stroke:#A80036;stroke-width:1.0;" x1="647.6148" x2="644.46" y1="457.0383" y2="464.39"/><line style="stroke:#A80036;stroke-width:1.0;" x1="652.0793" x2="644.7277" y1="456.7778" y2="453.623"/><text fill="#000000" font-family="sans-serif" font-size="13" lengthAdjust="spacing" textLength="90" x="684.5" y="403.4951">specimenCount</text><!--MD5=[ee0819a9fe1791e659b84fe27b896ff9]
link Collection to Technique--><path codeLine="176" d="M716.74,282.06 C587.95,292.29 312.36,321.68 249.5,389 C234.66,404.89 230.09,428.23 229.56,449.19 " fill="none" id="Collection-to-Technique" style="stroke:#A80036;stroke-width:1.0;"/><line style="stroke:#A80036;stroke-width:1.0;" x1="229.56" x2="235.56" y1="449.39" y2="457.39"/><line style="stroke:#A80036;stroke-width:1.0;" x1="229.56" x2="223.56" y1="449.39" y2="457.39"/><line style="stroke:#A80036;stroke-width:1.0;" x1="229.56" x2="229.56" y1="449.39" y2="457.39"/><line style="stroke:#A80036;stroke-width:1.0;" x1="233.56" x2="225.56" y1="447.39" y2="447.39"/><text fill="#000000" font-family="sans-serif" font-size="13" lengthAdjust="spacing" textLength="56" x="250.5" y="403.4951">technique</text><!--MD5=[cec1f256de9c720b23750aebcdf35e99]
link Collection to AccessControl--><path codeLine="177" d="M783.5,359.11 C783.5,389.73 783.5,423.51 783.5,450.03 " fill="none" id="Collection-to-AccessControl" style="stroke:#A80036;stroke-width:1.0;"/><line style="stroke:#A80036;stroke-width:1.0;" x1="787.5" x2="779.5" y1="453.31" y2="453.31"/><line style="stroke:#A80036;stroke-width:1.0;" x1="787.5" x2="779.5" y1="450.31" y2="450.31"/><line style="stroke:#A80036;stroke-width:1.0;" x1="783.5" x2="783.5" y1="449.31" y2="457.31"/><text fill="#000000" font-family="sans-serif" font-size="13" lengthAdjust="spacing" textLength="83" x="784.5" y="403.4951">accessControl</text><!--MD5=[5ccb5162cc5fd6d1bda8fcd5d73c4393]
link Collection to CompletionState--><path codeLine="178" d="M850.01,353.38 C859.27,365.04 868.39,377.14 876.5,389 C891.48,410.89 905.95,436.86 916.92,457.89 " fill="none" id="Collection-to-CompletionState" style="stroke:#A80036;stroke-width:1.0;"/><line style="stroke:#A80036;stroke-width:1.0;" x1="921.9252" x2="914.8194" y1="458.8594" y2="462.5348"/><line style="stroke:#A80036;stroke-width:1.0;" x1="920.5469" x2="913.4412" y1="456.1948" y2="459.8702"/><line style="stroke:#A80036;stroke-width:1.0;" x1="916.5346" x2="920.21" y1="457.1443" y2="464.25"/><text fill="#000000" font-family="sans-serif" font-size="13" lengthAdjust="spacing" textLength="94" x="888.5" y="403.4951">completionState</text><!--MD5=[89d5bacfd7dcae490b56b6d31cb129b1]
link Collection to License--><path codeLine="179" d="M850.25,285.4 C935.09,299.42 1078.34,337.29 1143.5,437 C1171.56,479.95 1177.76,538.57 1177.69,582.38 " fill="none" id="Collection-to-License" style="stroke:#A80036;stroke-width:1.0;"/><line style="stroke:#A80036;stroke-width:1.0;" x1="1181.6625" x2="1173.6628" y1="585.5928" y2="585.5275"/><line style="stroke:#A80036;stroke-width:1.0;" x1="1181.687" x2="1173.6873" y1="582.5929" y2="582.5276"/><line style="stroke:#A80036;stroke-width:1.0;" x1="1177.6953" x2="1177.63" y1="581.5603" y2="589.56"/><text fill="#000000" font-family="sans-serif" font-size="13" lengthAdjust="spacing" textLength="41" x="1115.5" y="403.4951">license</text><!--MD5=[afb119690893b30e5259741972e0b822]
link Award to Agent--><path codeLine="181" d="M1864.91,331.03 C1852.17,348.31 1840.14,368.36 1833.5,389 C1827.23,408.49 1826.82,430.98 1828.43,450.42 " fill="none" id="Award-to-Agent" style="stroke:#A80036;stroke-width:1.0;"/><line style="stroke:#A80036;stroke-width:1.0;" x1="1832.6984" x2="1824.7369" y1="453.0569" y2="453.8416"/><line style="stroke:#A80036;stroke-width:1.0;" x1="1832.4041" x2="1824.4427" y1="450.0714" y2="450.8561"/><line style="stroke:#A80036;stroke-width:1.0;" x1="1828.3253" x2="1829.11" y1="449.4686" y2="457.43"/><text fill="#000000" font-family="sans-serif" font-size="13" lengthAdjust="spacing" textLength="35" x="1834.5" y="403.4951">funder</text><!--MD5=[afb119690893b30e5259741972e0b822]
link Award to Agent--><path codeLine="182" d="M1898.71,331.15 C1891.89,354.62 1883.35,382.36 1874.5,407 C1869.35,421.33 1863.16,436.69 1857.29,450.61 " fill="none" id="Award-to-Agent-1" style="stroke:#A80036;stroke-width:1.0;"/><line style="stroke:#A80036;stroke-width:1.0;" x1="1859.6889" x2="1852.3306" y1="455.2006" y2="452.0611"/><line style="stroke:#A80036;stroke-width:1.0;" x1="1860.8662" x2="1853.508" y1="452.4413" y2="449.3018"/><line style="stroke:#A80036;stroke-width:1.0;" x1="1857.5795" x2="1854.44" y1="449.9518" y2="457.31"/><text fill="#000000" font-family="sans-serif" font-size="13" lengthAdjust="spacing" textLength="48" x="1881.5" y="403.4951">awardee</text><!--MD5=[f755309ad8a3462bce1653c91328d829]
link Contact to Agent--><path codeLine="184" d="M1649.35,317.71 C1657.62,345.17 1671.67,381.12 1693.5,407 C1711.95,428.87 1737.06,447.2 1761.09,461.51 " fill="none" id="Contact-to-Agent" style="stroke:#A80036;stroke-width:1.0;"/><line style="stroke:#A80036;stroke-width:1.0;" x1="1758.6556" x2="1768.16" y1="460.0923" y2="465.63"/><ellipse cx="1758.6556" cy="460.0923" fill="none" rx="4" ry="4" style="stroke:#A80036;stroke-width:1.0;"/><line style="stroke:#A80036;stroke-width:1.0;" x1="1766.7176" x2="1762.6901" y1="460.1601" y2="467.0724"/><text fill="#000000" font-family="sans-serif" font-size="13" lengthAdjust="spacing" textLength="32" x="1694.5" y="403.4951">agent</text><!--MD5=[582182708bce533038c3560ab8e60929]
link Project to Collection--><path codeLine="186" d="M1484.83,78.68 C1349.05,116.79 1009.33,212.13 858.12,254.56 " fill="none" id="Project-to-Collection" style="stroke:#A80036;stroke-width:1.0;"/><line style="stroke:#A80036;stroke-width:1.0;" x1="857.8834" x2="851.7986" y1="254.6319" y2="262.5676"/><line style="stroke:#A80036;stroke-width:1.0;" x1="857.8834" x2="848.5614" y1="254.6319" y2="251.0124"/><line style="stroke:#A80036;stroke-width:1.0;" x1="857.8834" x2="850.18" y1="254.6319" y2="256.79"/><line style="stroke:#A80036;stroke-width:1.0;" x1="860.8883" x2="858.7302" y1="257.9441" y2="250.2407"/><text fill="#000000" font-family="sans-serif" font-size="13" lengthAdjust="spacing" textLength="62" x="1231.5" y="160.4951">collections</text><!--MD5=[191048ad3021cd7da00ad3f7f5ee65db]
link Project to Award--><path codeLine="187" d="M1600.13,75.39 C1650.12,88.24 1723.09,111.14 1779.5,146 C1809.95,164.81 1839.1,191.55 1862.4,215.85 " fill="none" id="Project-to-Award" style="stroke:#A80036;stroke-width:1.0;"/><line style="stroke:#A80036;stroke-width:1.0;" x1="1862.6853" x2="1872.5437" y1="216.165" y2="217.8415"/><line style="stroke:#A80036;stroke-width:1.0;" x1="1862.6853" x2="1863.8363" y1="216.165" y2="226.0985"/><line style="stroke:#A80036;stroke-width:1.0;" x1="1862.6853" x2="1868.19" y1="216.165" y2="221.97"/><line style="stroke:#A80036;stroke-width:1.0;" x1="1864.2116" x2="1858.4066" y1="211.9614" y2="217.4661"/><text fill="#000000" font-family="sans-serif" font-size="13" lengthAdjust="spacing" textLength="82" x="1804.5" y="160.4951">fundingSource</text><!--MD5=[1ffd9570c151cf8bce770b1c5109ac83]
link Project to WebResource--><path codeLine="188" d="M1484.66,64.57 C1210.56,75.14 55.5,128.4 55.5,275.5 C55.5,275.5 55.5,275.5 55.5,944 C55.5,970.88 58.67,1000.22 62.49,1025.8 " fill="none" id="Project-to-WebResource" style="stroke:#A80036;stroke-width:1.0;"/><line style="stroke:#A80036;stroke-width:1.0;" x1="62.5368" x2="69.6806" y1="1026.0525" y2="1033.0501"/><line style="stroke:#A80036;stroke-width:1.0;" x1="62.5368" x2="57.8194" y1="1026.0525" y2="1034.8699"/><line style="stroke:#A80036;stroke-width:1.0;" x1="62.5368" x2="63.75" y1="1026.0525" y2="1033.96"/><line style="stroke:#A80036;stroke-width:1.0;" x1="66.1872" x2="58.2797" y1="1023.469" y2="1024.6823"/><text fill="#000000" font-family="sans-serif" font-size="13" lengthAdjust="spacing" textLength="151" x="56.5" y="649.9951">highlightedWebResources</text><!--MD5=[a9b09d7569d658283003f5256b89a667]
link Project to Agent--><path codeLine="189" d="M1600.38,69.91 C1712.38,85.65 1951.47,126.61 1993.5,194 C2032.31,256.22 2023.67,292.16 1993.5,359 C1976.26,397.2 1942.7,429.08 1911.02,452.59 " fill="none" id="Project-to-Agent" style="stroke:#A80036;stroke-width:1.0;"/><line style="stroke:#A80036;stroke-width:1.0;" x1="1910.773" x2="1907.8258" y1="452.7789" y2="462.3347"/><line style="stroke:#A80036;stroke-width:1.0;" x1="1910.773" x2="1900.7742" y1="452.7789" y2="452.6253"/><line style="stroke:#A80036;stroke-width:1.0;" x1="1910.773" x2="1904.3" y1="452.7789" y2="457.48"/><line style="stroke:#A80036;stroke-width:1.0;" x1="1914.7418" x2="1910.0407" y1="454.8401" y2="448.3671"/><text fill="#000000" font-family="sans-serif" font-size="13" lengthAdjust="spacing" textLength="40" x="2019.5" y="281.9951">creator</text><!--MD5=[a9b09d7569d658283003f5256b89a667]
link Project to Agent--><path codeLine="190" d="M1600.3,99.85 C1633.42,123.59 1673.78,156.81 1701.5,194 C1749.1,257.87 1739.02,286.26 1771.5,359 C1785.11,389.48 1801.03,423.42 1813.7,450.07 " fill="none" id="Project-to-Agent-1" style="stroke:#A80036;stroke-width:1.0;"/><line style="stroke:#A80036;stroke-width:1.0;" x1="1813.7344" x2="1822.595" y1="450.16" y2="454.7958"/><line style="stroke:#A80036;stroke-width:1.0;" x1="1813.7344" x2="1811.765" y1="450.16" y2="459.9642"/><line style="stroke:#A80036;stroke-width:1.0;" x1="1813.7344" x2="1817.18" y1="450.16" y2="457.38"/><ellipse cx="1811.1502" cy="444.745" fill="none" rx="4" ry="4" style="stroke:#A80036;stroke-width:1.0;"/><text fill="#000000" font-family="sans-serif" font-size="13" lengthAdjust="spacing" textLength="61" x="1772.5" y="281.9951">contributor</text><!--MD5=[f616ccee2d666a4a853c307929d8d001]
link Project to Contact--><path codeLine="191" d="M1566.98,116.25 C1582.63,150.62 1602.75,194.8 1617.83,227.91 " fill="none" id="Project-to-Contact" style="stroke:#A80036;stroke-width:1.0;"/><line style="stroke:#A80036;stroke-width:1.0;" x1="1617.8474" x2="1626.6215" y1="227.938" y2="232.7356"/><line style="stroke:#A80036;stroke-width:1.0;" x1="1617.8474" x2="1615.6985" y1="227.938" y2="237.7044"/><line style="stroke:#A80036;stroke-width:1.0;" x1="1617.8474" x2="1621.16" y1="227.938" y2="235.22"/><ellipse cx="1615.363" cy="222.4766" fill="none" rx="4" ry="4" style="stroke:#A80036;stroke-width:1.0;"/><text fill="#000000" font-family="sans-serif" font-size="13" lengthAdjust="spacing" textLength="43" x="1588.5" y="160.4951">contact</text><!--MD5=[864f0b92d20797c217a6ab44c4dc7597]
link Collection to webResource--><path codeLine="195" d="M716.84,281.06 C621.24,290.19 448.07,322.53 369.5,437 C338.56,482.07 354.14,507.54 369.5,560 C412.8,707.9 427.01,768.45 556.5,852 C660.05,918.81 1067.45,937.97 1156.32,941.39 " fill="none" id="Collection-to-webResource" style="stroke:#A80036;stroke-width:1.0;"/><line style="stroke:#A80036;stroke-width:1.0;" x1="1156.3251" x2="1164.5341" y1="941.4045" y2="935.6938"/><line style="stroke:#A80036;stroke-width:1.0;" x1="1156.3251" x2="1164.1059" y1="941.4045" y2="947.6862"/><line style="stroke:#A80036;stroke-width:1.0;" x1="1156.3251" x2="1164.32" y1="941.4045" y2="941.69"/><ellipse cx="1150.3289" cy="941.1903" fill="none" rx="4" ry="4" style="stroke:#A80036;stroke-width:1.0;"/><!--MD5=[2a176ec6e56142e667a6ca4d450e462f]
link Protocol to webResource--><path codeLine="196" d="M256.7,838.22 C269.98,855.34 287.27,872.97 307.5,883 C386.53,922.17 1045.36,939.04 1157.35,941.64 " fill="none" id="Protocol-to-webResource" style="stroke:#A80036;stroke-width:1.0;"/><line style="stroke:#A80036;stroke-width:1.0;" x1="1160.5408" x2="1160.3612" y1="937.7112" y2="945.7092"/><line style="stroke:#A80036;stroke-width:1.0;" x1="1157.5415" x2="1157.362" y1="937.6439" y2="945.6419"/><line style="stroke:#A80036;stroke-width:1.0;" x1="1156.452" x2="1164.45" y1="941.6205" y2="941.8"/><!--MD5=[1c797bc0c7696043f62d4f663e490ac8]
link Program to webResource--><path codeLine="197" d="M1287.27,331.17 C1279.77,438.09 1257.24,684.47 1199.5,883 C1194.94,898.67 1187.15,915.62 1181.28,927.31 " fill="none" id="Program-to-webResource" style="stroke:#A80036;stroke-width:1.0;"/><line style="stroke:#A80036;stroke-width:1.0;" x1="1183.3074" x2="1176.195" y1="932.135" y2="928.4726"/><line style="stroke:#A80036;stroke-width:1.0;" x1="1184.6809" x2="1177.5685" y1="929.4679" y2="925.8054"/><line style="stroke:#A80036;stroke-width:1.0;" x1="1181.5825" x2="1177.92" y1="926.7476" y2="933.86"/><!--MD5=[4a2e2c586f339b6454823a90987e2383]
link Subprogram to webResource--><path codeLine="198" d="M1361.67,553.32 C1360.73,632.95 1348.44,783.43 1275.5,883 C1253.78,912.65 1212.3,929.75 1189.5,937.3 " fill="none" id="Subprogram-to-webResource" style="stroke:#A80036;stroke-width:1.0;"/><line style="stroke:#A80036;stroke-width:1.0;" x1="1187.5615" x2="1185.1447" y1="942.1047" y2="934.4785"/><line style="stroke:#A80036;stroke-width:1.0;" x1="1190.4213" x2="1188.0045" y1="941.1983" y2="933.5721"/><line style="stroke:#A80036;stroke-width:1.0;" x1="1190.1662" x2="1182.54" y1="937.0831" y2="939.5"/><!--MD5=[95349482925edfed8310089adce9d7ff]
link Project to webResource--><path codeLine="199" d="M1542.5,116.34 C1542.5,159.4 1542.5,221.33 1542.5,275.5 C1542.5,275.5 1542.5,275.5 1542.5,791.5 C1542.5,868.46 1263.79,925.32 1190.82,938.89 " fill="none" id="Project-to-webResource" style="stroke:#A80036;stroke-width:1.0;"/><line style="stroke:#A80036;stroke-width:1.0;" x1="1193.4397" x2="1182.62" y1="938.4167" y2="940.4"/><ellipse cx="1193.4397" cy="938.4167" fill="none" rx="4" ry="4" style="stroke:#A80036;stroke-width:1.0;"/><line style="stroke:#A80036;stroke-width:1.0;" x1="1187.2756" x2="1185.8333" y1="943.6133" y2="935.7444"/><!--MD5=[7fb3a26b81560d5d6bd68c7e22ae7483]
link License to webResource--><path codeLine="200" d="M1173.5,699.19 C1173.5,768.49 1173.5,885.09 1173.5,926.69 " fill="none" id="License-to-webResource" style="stroke:#A80036;stroke-width:1.0;"/><line style="stroke:#A80036;stroke-width:1.0;" x1="1177.5" x2="1169.5" y1="929.76" y2="929.76"/><line style="stroke:#A80036;stroke-width:1.0;" x1="1177.5" x2="1169.5" y1="926.76" y2="926.76"/><line style="stroke:#A80036;stroke-width:1.0;" x1="1173.5" x2="1173.5" y1="925.76" y2="933.76"/><!--MD5=[0533f153d170161b6ff8faea2918f614]
link webResource to WebResource--><path codeLine="201" d="M1164.34,945.26 C1074.64,957.55 351.96,1056.61 136.14,1086.19 " fill="none" id="webResource-to-WebResource" style="stroke:#A80036;stroke-width:1.0;"/><polygon fill="#A80036" points="131.14,1086.87,140.5954,1089.6258,136.0948,1086.1989,139.5217,1081.6982,131.14,1086.87" style="stroke:#A80036;stroke-width:1.0;"/><!--MD5=[1dd2d7f590d7980168241d4e9f810c51]
link Project to Program--><path codeLine="203" d="M1484.7,88.28 C1455.61,102.83 1420.83,122.75 1393.5,146 C1373.3,163.18 1354.27,184.81 1338.2,205.45 " fill="none" id="Project-to-Program" style="stroke:#A80036;stroke-width:1.0;"/><polygon fill="none" points="1343.6,209.92,1325.98,221.68,1332.42,201.5,1343.6,209.92" style="stroke:#A80036;stroke-width:1.0;"/><!--MD5=[99f9c31ecbfad8d2518348d31922ae2d]
link Program to Subprogram--><path codeLine="204" d="M1295.7,331.06 C1298.99,354.76 1304.24,382.71 1312.5,407 C1314.59,413.15 1317.06,419.38 1319.76,425.55 " fill="none" id="Program-to-Subprogram" style="stroke:#A80036;stroke-width:1.0;"/><polygon fill="none" points="1326.14,422.65,1328.39,443.72,1313.49,428.66,1326.14,422.65" style="stroke:#A80036;stroke-width:1.0;"/><!--MD5=[827a97e05ef2f8b4a56fbbcd192e9810]
link Subprogram to Program--><path codeLine="206" d="M1343.39,443.72 C1333.21,411.74 1320.27,371.08 1309.74,337.98 " fill="none" id="Subprogram-to-Program" style="stroke:#A80036;stroke-width:1.0;"/><line style="stroke:#A80036;stroke-width:1.0;" x1="1304.9351" x2="1312.5566" y1="336.0666" y2="333.6349"/><line style="stroke:#A80036;stroke-width:1.0;" x1="1305.847" x2="1313.4685" y1="338.9246" y2="336.4929"/><line style="stroke:#A80036;stroke-width:1.0;" x1="1309.9617" x2="1307.53" y1="338.6615" y2="331.04"/><text fill="#000000" font-family="sans-serif" font-size="13" lengthAdjust="spacing" textLength="47" x="1330.5" y="403.4951">program</text><!--MD5=[4d918feca7db87a718257e9b64da3d88]
link Project to Subprogram--><path codeLine="205" d="M1496.73,116.01 C1479.02,138.85 1459.85,166.55 1446.5,194 C1403.49,282.45 1413.41,312.4 1386.5,407 C1383.82,416.43 1380.97,426.41 1378.17,436.16 " fill="none" id="Project-to-Subprogram" style="stroke:#A80036;stroke-width:1.0;"/><line style="stroke:#A80036;stroke-width:1.0;" x1="1378.1547" x2="1381.7055" y1="436.2327" y2="445.5811"/><line style="stroke:#A80036;stroke-width:1.0;" x1="1378.1547" x2="1370.1745" y1="436.2327" y2="442.2589"/><line style="stroke:#A80036;stroke-width:1.0;" x1="1378.1547" x2="1375.94" y1="436.2327" y2="443.92"/><line style="stroke:#A80036;stroke-width:1.0;" x1="1382.5521" x2="1374.8648" y1="435.4182" y2="433.2035"/><text fill="#000000" font-family="sans-serif" font-size="13" lengthAdjust="spacing" textLength="68" x="1447.5" y="281.9951">subprogram</text><!--MD5=[3956377c3686660705cf048d5f2e5436]
@startuml

hide empty members
'hide circle


'Enums
enum WebResourceType {
    Download
    Information
    Explore
    View
}

enum AccessControl {
    Open
    Embargoed
    Controlled
}

enum CompletionState {
    Complete
    InProgress
}

enum AgentType {
    Person
    Organization
}


'Entity-like
class Agent {
    * id: String!
    agent_id: String!
    agentType: AgentType
}

class Modality {
    * id: String!
    name: String!
    handle: String
}

class SpecimenType {
    * id: String!
    name: String!
    handle: String
}


class WebResource {
    * id: String!
    handle: String
    title: String!
    shortTitle: String!
    url: String!
    rrid: String
}

class Collection {
    * id: String!
    handle: String!
    title: String!
    shortTitle: String!
    description: String!
    lastUpdatedDate: Date
    doi: String
    rrid: String
    citation: String
}

class Program {
    * id: String!
    handle: String!
    title: String!
    shortTitle: String!
    description: String!
}

class Subprogram {
    * id: String!
    handle: String!
    title: String!
    shortTitle: String!
    description: String!
}

class Project {
    * id: String!
    handle: String
    title: String!
    shortTitle: String!
    description: String!
}

class Protocol {
    * id: String!
    handle: String
    title: String!
    shortTitle: String!
}

class Person {
    * id: String!
    name: String!
    givenName: String!
    familyName: String!
    handle: String
    orcid: String
}

class Organization {
    * id: String
    name: String!
    handle: String
    ror: String
}

class License {
    * id: String!
    handle: String
    name: String!
    title: String!
    shortTitle: String!
}

class Award {
    * id: String
    name: String!
    title: String!
    identifier: String!
    reportSymbol: String
}

class Technique {
    * id: String!
    handle: String
    name: String!
}

class Species {
    * id: String!
    name: String!
    common_name: String!
    scientific_name: String
    ncbi_taxonomy_id: String!
    rrid: String
}

class SpecimenCount {
    * id: String!
    count: Int
}

class Contact {
    * id: String!
    name: String!
    email: String
}

'Relationships
Agent - -o| Person : person
Agent - -o| Organization : organization

Agent - -|| AgentType : type

SpecimenCount - -|| SpecimenType : specimenType

WebResource - -|| WebResourceType : type

Technique - -|{ Protocol : protocol

Collection - -|{  Modality : modality
Collection - -|{  Species : species
Collection - -|{ SpecimenCount : specimenCount
Collection - -|{  Technique : technique
Collection - -||  AccessControl : accessControl
Collection - -||  CompletionState : completionState
Collection - -|| License : license

Award - -|| Agent : funder
Award - -|| Agent : awardee

Contact - -o| Agent: agent

Project - -|{ Collection : collections
Project - -|{  Award : fundingSource
Project - -|{  WebResource : highlightedWebResources
Project - -|{ Agent : creator
Project - -o{  Agent : contributor
Project - -o{  Contact : contact


circle webResource
Collection - -o{ webResource
Protocol - -|| webResource
Program - -|| webResource
Subprogram - -|| webResource
Project - -o|  webResource
License - -|| webResource
webResource - -> WebResource

Project - -|> Program
Program - -|> Subprogram
Project - -|{ Subprogram : subprogram
Subprogram - -|| Program : program

@enduml

@startuml

hide empty members


enum WebResourceType {
    Download
    Information
    Explore
    View
}

enum AccessControl {
    Open
    Embargoed
    Controlled
}

enum CompletionState {
    Complete
    InProgress
}

enum AgentType {
    Person
    Organization
}


class Agent {
    * id: String!
    agent_id: String!
    agentType: AgentType
}

class Modality {
    * id: String!
    name: String!
    handle: String
}

class SpecimenType {
    * id: String!
    name: String!
    handle: String
}


class WebResource {
    * id: String!
    handle: String
    title: String!
    shortTitle: String!
    url: String!
    rrid: String
}

class Collection {
    * id: String!
    handle: String!
    title: String!
    shortTitle: String!
    description: String!
    lastUpdatedDate: Date
    doi: String
    rrid: String
    citation: String
}

class Program {
    * id: String!
    handle: String!
    title: String!
    shortTitle: String!
    description: String!
}

class Subprogram {
    * id: String!
    handle: String!
    title: String!
    shortTitle: String!
    description: String!
}

class Project {
    * id: String!
    handle: String
    title: String!
    shortTitle: String!
    description: String!
}

class Protocol {
    * id: String!
    handle: String
    title: String!
    shortTitle: String!
}

class Person {
    * id: String!
    name: String!
    givenName: String!
    familyName: String!
    handle: String
    orcid: String
}

class Organization {
    * id: String
    name: String!
    handle: String
    ror: String
}

class License {
    * id: String!
    handle: String
    name: String!
    title: String!
    shortTitle: String!
}

class Award {
    * id: String
    name: String!
    title: String!
    identifier: String!
    reportSymbol: String
}

class Technique {
    * id: String!
    handle: String
    name: String!
}

class Species {
    * id: String!
    name: String!
    common_name: String!
    scientific_name: String
    ncbi_taxonomy_id: String!
    rrid: String
}

class SpecimenCount {
    * id: String!
    count: Int
}

class Contact {
    * id: String!
    name: String!
    email: String
}

Agent - -o| Person : person
Agent - -o| Organization : organization

Agent - -|| AgentType : type

SpecimenCount - -|| SpecimenType : specimenType

WebResource - -|| WebResourceType : type

Technique - -|{ Protocol : protocol

Collection - -|{  Modality : modality
Collection - -|{  Species : species
Collection - -|{ SpecimenCount : specimenCount
Collection - -|{  Technique : technique
Collection - -||  AccessControl : accessControl
Collection - -||  CompletionState : completionState
Collection - -|| License : license

Award - -|| Agent : funder
Award - -|| Agent : awardee

Contact - -o| Agent: agent

Project - -|{ Collection : collections
Project - -|{  Award : fundingSource
Project - -|{  WebResource : highlightedWebResources
Project - -|{ Agent : creator
Project - -o{  Agent : contributor
Project - -o{  Contact : contact


circle webResource
Collection - -o{ webResource
Protocol - -|| webResource
Program - -|| webResource
Subprogram - -|| webResource
Project - -o|  webResource
License - -|| webResource
webResource - -> WebResource

Project - -|> Program
Program - -|> Subprogram
Project - -|{ Subprogram : subprogram
Subprogram - -|| Program : program

@enduml

PlantUML version 1.2022.1(Tue Feb 01 10:19:58 PST 2022)
(GPL source distribution)
Java Runtime: OpenJDK Runtime Environment
JVM: OpenJDK 64-Bit Server VM
Default Encoding: Cp1252
Language: en
Country: US
--></g></svg>